<svg width="107" height="31" viewBox="0 0 107 31" fill="none" xmlns="http://www.w3.org/2000/svg">
<path d="M106.406 27.4249C106.406 29.077 105.043 30.4151 103.359 30.4151H3.64537C1.96135 30.4151 0.594421 29.077 0.594421 27.4249V3.57907C0.594421 1.92782 1.96135 0.584961 3.64537 0.584961H103.358C105.043 0.584961 106.405 1.92782 106.405 3.57907L106.406 27.4249Z" fill="black"/>
<path d="M103.037 0.62097C104.872 0.62097 106.365 2.08088 106.365 3.875V27.125C106.365 28.9191 104.872 30.379 103.037 30.379H3.96296C2.12811 30.379 0.635065 28.9191 0.635065 27.125V3.875C0.635065 2.08088 2.12811 0.62097 3.96296 0.62097H103.037ZM103.037 1.90735e-06H3.96296C1.78432 1.90735e-06 0 1.74472 0 3.875V27.125C0 29.2553 1.78432 31 3.96296 31H103.037C105.216 31 107 29.2553 107 27.125V3.875C107 1.74472 105.216 1.90735e-06 103.037 1.90735e-06Z" fill="#A6A6A6"/>
<path d="M23.8793 15.3323C23.8563 12.8345 25.9709 11.6193 26.0676 11.5627C24.87 9.85537 23.0137 9.6221 22.3614 9.6035C20.8024 9.44307 19.2901 10.5157 18.496 10.5157C17.6859 10.5157 16.463 9.619 15.1449 9.64535C13.4487 9.67092 11.862 10.6311 10.9917 12.1222C9.19568 15.1626 10.5352 19.6304 12.2559 22.088C13.1166 23.2915 14.1224 24.6354 15.4389 24.5881C16.7269 24.5362 17.208 23.7852 18.7623 23.7852C20.3023 23.7852 20.7541 24.5881 22.0967 24.5579C23.479 24.5362 24.3493 23.3489 25.1799 22.1345C26.1746 20.755 26.5741 19.3964 26.5899 19.3266C26.5574 19.3158 23.9054 18.3261 23.8793 15.3323Z" fill="white"/>
<path d="M21.343 7.98685C22.0357 7.13977 22.5097 5.98735 22.3781 4.81787C21.3755 4.86127 20.1216 5.496 19.3995 6.32447C18.7607 7.05452 18.19 8.25112 18.3374 9.37642C19.4637 9.45857 20.6201 8.82075 21.343 7.98685Z" fill="white"/>
<path d="M38.8767 7.75699C38.8767 8.66916 38.5969 9.35581 38.0381 9.81694C37.5206 10.2424 36.7851 10.4555 35.8324 10.4555C35.36 10.4555 34.9557 10.4354 34.6173 10.3951V5.41106C35.0588 5.34131 35.5343 5.30566 36.0479 5.30566C36.9555 5.30566 37.6395 5.49864 38.1008 5.88459C38.6175 6.32091 38.8767 6.94479 38.8767 7.75699ZM38.0009 7.77946C38.0009 7.18814 37.8408 6.73476 37.5206 6.41856C37.2004 6.10314 36.7327 5.94504 36.1169 5.94504C35.8553 5.94504 35.6326 5.96209 35.4479 5.99774V9.78671C35.5502 9.80221 35.7372 9.80919 36.0091 9.80919C36.6448 9.80919 37.1354 9.63636 37.481 9.29071C37.8265 8.94506 38.0009 8.44131 38.0009 7.77946Z" fill="white"/>
<path d="M43.5205 8.55395C43.5205 9.11583 43.3564 9.57618 43.0283 9.93733C42.6843 10.3086 42.2286 10.4938 41.6595 10.4938C41.111 10.4938 40.6743 10.3163 40.3485 9.9598C40.0236 9.60408 39.8611 9.15535 39.8611 8.6144C39.8611 8.04865 40.0283 7.58443 40.3644 7.22406C40.7004 6.86368 41.1522 6.68311 41.7213 6.68311C42.2698 6.68311 42.7105 6.86058 43.0441 7.21631C43.3612 7.56196 43.5205 8.00835 43.5205 8.55395ZM42.6589 8.58031C42.6589 8.24318 42.5844 7.9541 42.4362 7.71308C42.2618 7.42168 42.0138 7.27598 41.6912 7.27598C41.3575 7.27598 41.1039 7.42168 40.9295 7.71308C40.7805 7.9541 40.7068 8.24783 40.7068 8.59503C40.7068 8.93216 40.7813 9.22123 40.9295 9.46225C41.1094 9.75365 41.3599 9.89935 41.6833 9.89935C42.0003 9.89935 42.2492 9.75133 42.4283 9.45451C42.5821 9.20883 42.6589 8.91743 42.6589 8.58031Z" fill="white"/>
<path d="M49.7471 6.75732L48.578 10.4107H47.8171L47.3328 8.82425C47.21 8.42822 47.1101 8.03452 47.0325 7.64392H47.0174C46.9453 8.04537 46.8454 8.4383 46.717 8.82425L46.2026 10.4107H45.433L44.3337 6.75732H45.1873L45.6097 8.4941C45.712 8.90485 45.796 9.29622 45.8634 9.66667H45.8784C45.9403 9.36132 46.0425 8.97227 46.1868 8.50185L46.717 6.7581H47.3939L47.9019 8.46465C48.0248 8.88082 48.1246 9.2815 48.2015 9.66745H48.2245C48.2808 9.29157 48.3656 8.8909 48.4781 8.46465L48.9315 6.7581H49.7471V6.75732Z" fill="white"/>
<path d="M54.0532 10.4107H53.2226V8.31824C53.2226 7.67344 52.9721 7.35104 52.4696 7.35104C52.2231 7.35104 52.0242 7.43939 51.8697 7.61686C51.7167 7.79434 51.639 8.00359 51.639 8.24306V10.41H50.8084V7.80131C50.8084 7.48046 50.7981 7.13249 50.7783 6.75584H51.5082L51.5471 7.32701H51.5701C51.6668 7.14954 51.811 7.00306 52.0004 6.88604C52.2255 6.74964 52.4776 6.68066 52.7534 6.68066C53.1021 6.68066 53.3922 6.79071 53.6229 7.01159C53.9098 7.28206 54.0532 7.68584 54.0532 8.22214V10.4107Z" fill="white"/>
<path d="M56.3439 10.4107H55.514V5.08105H56.3439V10.4107Z" fill="white"/>
<path d="M61.2342 8.55395C61.2342 9.11583 61.0701 9.57618 60.742 9.93733C60.398 10.3086 59.9415 10.4938 59.3732 10.4938C58.8239 10.4938 58.3872 10.3163 58.0622 9.9598C57.7372 9.60408 57.5748 9.15535 57.5748 8.6144C57.5748 8.04865 57.742 7.58443 58.0781 7.22406C58.4141 6.86368 58.8659 6.68311 59.4342 6.68311C59.9835 6.68311 60.4233 6.86058 60.7578 7.21631C61.0749 7.56196 61.2342 8.00835 61.2342 8.55395ZM60.3718 8.58031C60.3718 8.24318 60.2973 7.9541 60.1491 7.71308C59.9755 7.42168 59.7267 7.27598 59.4049 7.27598C59.0704 7.27598 58.8168 7.42168 58.6432 7.71308C58.4942 7.9541 58.4205 8.24783 58.4205 8.59503C58.4205 8.93216 58.495 9.22123 58.6432 9.46225C58.8231 9.75365 59.0736 9.89935 59.3969 9.89935C59.714 9.89935 59.9621 9.75133 60.1412 9.45451C60.2957 9.20883 60.3718 8.91743 60.3718 8.58031Z" fill="white"/>
<path d="M65.2542 10.4109H64.5083L64.4465 9.99003H64.4235C64.1683 10.3256 63.8045 10.4938 63.3321 10.4938C62.9794 10.4938 62.6941 10.383 62.4793 10.1629C62.2843 9.9629 62.1868 9.71413 62.1868 9.41885C62.1868 8.97245 62.3771 8.63223 62.7599 8.39663C63.1419 8.16103 63.6793 8.04555 64.3712 8.05098V7.98278C64.3712 7.50151 64.1128 7.26126 63.5953 7.26126C63.2267 7.26126 62.9017 7.35193 62.6212 7.53173L62.4523 6.99853C62.7995 6.78851 63.2283 6.68311 63.734 6.68311C64.7104 6.68311 65.2003 7.18686 65.2003 8.19436V9.53975C65.2003 9.90478 65.2185 10.1954 65.2542 10.4109ZM64.3918 9.15535V8.59193C63.4756 8.57643 63.0175 8.82211 63.0175 9.32818C63.0175 9.51883 63.0698 9.66143 63.1768 9.75675C63.2838 9.85208 63.4201 9.89935 63.5826 9.89935C63.7649 9.89935 63.9353 9.84278 64.0906 9.73041C64.2468 9.61725 64.3427 9.47388 64.3783 9.29795C64.3871 9.25843 64.3918 9.21038 64.3918 9.15535Z" fill="white"/>
<path d="M69.9741 10.4107H69.237L69.1981 9.82405H69.1751C68.9397 10.2705 68.5387 10.4937 67.9752 10.4937C67.525 10.4937 67.1501 10.3208 66.8528 9.97518C66.5556 9.62953 66.4074 9.1808 66.4074 8.62978C66.4074 8.03845 66.5683 7.5595 66.8917 7.1937C67.2048 6.8527 67.5884 6.6822 68.0449 6.6822C68.5466 6.6822 68.8977 6.84728 69.0975 7.1782H69.1133V5.08105H69.9447V9.42648C69.9447 9.7822 69.9543 10.11 69.9741 10.4107ZM69.1133 8.87003V8.26088C69.1133 8.15548 69.1054 8.07023 69.0903 8.00513C69.0436 7.80983 68.9429 7.64553 68.7899 7.513C68.6354 7.38048 68.4491 7.31383 68.2343 7.31383C67.9244 7.31383 67.6819 7.43395 67.5036 7.67498C67.3268 7.916 67.2372 8.22368 67.2372 8.59955C67.2372 8.9607 67.3221 9.25365 67.4925 9.47918C67.6724 9.71943 67.9149 9.83955 68.2185 9.83955C68.4911 9.83955 68.7091 9.73958 68.8747 9.53885C69.0348 9.35363 69.1133 9.13043 69.1133 8.87003Z" fill="white"/>
<path d="M77.0781 8.55395C77.0781 9.11583 76.914 9.57618 76.5859 9.93733C76.2419 10.3086 75.787 10.4938 75.2171 10.4938C74.6694 10.4938 74.2327 10.3163 73.9061 9.9598C73.5812 9.60408 73.4187 9.15535 73.4187 8.6144C73.4187 8.04865 73.5859 7.58443 73.922 7.22406C74.2581 6.86368 74.7098 6.68311 75.2797 6.68311C75.8274 6.68311 76.2689 6.86058 76.6017 7.21631C76.9188 7.56196 77.0781 8.00835 77.0781 8.55395ZM76.2173 8.58031C76.2173 8.24318 76.1428 7.9541 75.9946 7.71308C75.8195 7.42168 75.5722 7.27598 75.2488 7.27598C74.9159 7.27598 74.6623 7.42168 74.4871 7.71308C74.3381 7.9541 74.2644 8.24783 74.2644 8.59503C74.2644 8.93216 74.3389 9.22123 74.4871 9.46225C74.667 9.75365 74.9175 9.89935 75.2409 9.89935C75.5579 9.89935 75.8076 9.75133 75.9867 9.45451C76.1397 9.20883 76.2173 8.91743 76.2173 8.58031Z" fill="white"/>
<path d="M81.5443 10.4107H80.7145V8.31824C80.7145 7.67344 80.464 7.35104 79.9607 7.35104C79.7142 7.35104 79.5153 7.43939 79.3615 7.61686C79.2078 7.79434 79.1309 8.00359 79.1309 8.24306V10.41H78.2995V7.80131C78.2995 7.48046 78.29 7.13249 78.2701 6.75584H78.9993L79.0382 7.32701H79.0611C79.1586 7.14954 79.3029 7.00306 79.4915 6.88604C79.7174 6.74964 79.9687 6.68066 80.2453 6.68066C80.5932 6.68066 80.8833 6.79071 81.114 7.01159C81.4017 7.28206 81.5443 7.68584 81.5443 8.22214V10.4107Z" fill="white"/>
<path d="M87.1345 7.36588H86.2198V9.14063C86.2198 9.59168 86.3823 9.81721 86.7041 9.81721C86.8531 9.81721 86.9768 9.80481 87.0742 9.77923L87.0956 10.3954C86.9316 10.4558 86.716 10.486 86.4505 10.486C86.1223 10.486 85.8671 10.3884 85.6824 10.1931C85.497 9.99778 85.405 9.66918 85.405 9.20806V7.36588H84.8589V6.75751H85.405V6.08791L86.219 5.84766V6.75673H87.1337V7.36588H87.1345Z" fill="white"/>
<path d="M91.5318 10.4107H90.7004V8.33373C90.7004 7.67885 90.4499 7.35103 89.9482 7.35103C89.563 7.35103 89.2999 7.5409 89.1556 7.92066C89.131 8.00048 89.1168 8.09813 89.1168 8.21283V10.41H88.2869V5.08105H89.1168V7.28283H89.1326C89.3942 6.88215 89.7691 6.6822 90.2549 6.6822C90.5989 6.6822 90.8835 6.79225 91.1094 7.01313C91.3907 7.28825 91.5318 7.69745 91.5318 8.2384V10.4107Z" fill="white"/>
<path d="M96.0678 8.41101C96.0678 8.55671 96.0567 8.67916 96.0369 8.77913H93.5458C93.5569 9.14028 93.6757 9.41541 93.9064 9.60606C94.1172 9.77656 94.3891 9.86181 94.722 9.86181C95.0905 9.86181 95.4266 9.80446 95.7293 9.68898L95.8593 10.2532C95.505 10.4035 95.0881 10.4787 94.6054 10.4787C94.0269 10.4787 93.5711 10.3121 93.2414 9.97883C92.9101 9.64558 92.746 9.19841 92.746 8.63731C92.746 8.08628 92.899 7.62748 93.2073 7.26168C93.5291 6.87108 93.9642 6.67578 94.5135 6.67578C95.0509 6.67578 95.4591 6.87108 95.7349 7.26168C95.9576 7.57168 96.0678 7.95531 96.0678 8.41101ZM95.2752 8.20098C95.2815 7.95996 95.2268 7.75226 95.1143 7.57711C94.97 7.35158 94.7505 7.23843 94.4533 7.23843C94.1822 7.23843 93.9611 7.34848 93.7923 7.56936C93.6543 7.74528 93.5727 7.95531 93.5458 8.20098H95.2752Z" fill="white"/>
<path d="M42.5186 24.4153H40.7186L39.7326 21.3858H36.3055L35.3663 24.4153H33.6138L37.0093 14.1016H39.1065L42.5186 24.4153ZM39.4354 20.1148L38.5438 17.4217C38.4494 17.1465 38.2727 16.4986 38.0119 15.4787H37.9802C37.8764 15.9174 37.7092 16.5653 37.4793 17.4217L36.6035 20.1148H39.4354Z" fill="white"/>
<path d="M51.2506 20.6058C51.2506 21.8706 50.9011 22.8704 50.202 23.6043C49.5759 24.2576 48.7983 24.5839 47.8702 24.5839C46.8684 24.5839 46.1487 24.2321 45.7104 23.5284H45.6787V27.446H43.9889V19.4271C43.9889 18.6319 43.9675 17.8158 43.9263 16.9788H45.4124L45.5067 18.1576H45.5384C46.1019 17.2695 46.9571 16.8262 48.1048 16.8262C49.002 16.8262 49.751 17.1726 50.3502 17.8662C50.951 18.5606 51.2506 19.4736 51.2506 20.6058ZM49.5291 20.6663C49.5291 19.9424 49.3627 19.3457 49.0282 18.876C48.6628 18.3862 48.1722 18.1413 47.5571 18.1413C47.1402 18.1413 46.7614 18.2777 46.4229 18.5467C46.0837 18.8179 45.8618 19.1721 45.7579 19.6107C45.7056 19.8153 45.6795 19.9827 45.6795 20.1145V21.3545C45.6795 21.8954 45.8491 22.3519 46.1883 22.7247C46.5276 23.0975 46.9682 23.2835 47.5104 23.2835C48.1468 23.2835 48.6422 23.0432 48.9965 22.5643C49.3516 22.0845 49.5291 21.4521 49.5291 20.6663Z" fill="white"/>
<path d="M59.9984 20.6058C59.9984 21.8706 59.6489 22.8704 58.949 23.6043C58.3237 24.2576 57.5461 24.5839 56.618 24.5839C55.6162 24.5839 54.8965 24.2321 54.459 23.5284H54.4273V27.446H52.7375V19.4271C52.7375 18.6319 52.7161 17.8158 52.6749 16.9788H54.161L54.2553 18.1576H54.287C54.8497 17.2695 55.705 16.8262 56.8534 16.8262C57.7498 16.8262 58.4988 17.1726 59.0996 17.8662C59.698 18.5606 59.9984 19.4736 59.9984 20.6058ZM58.2769 20.6663C58.2769 19.9424 58.1097 19.3457 57.7752 18.876C57.4098 18.3862 56.9208 18.1413 56.3049 18.1413C55.8872 18.1413 55.5092 18.2777 55.1699 18.5467C54.8307 18.8179 54.6096 19.1721 54.5058 19.6107C54.4542 19.8153 54.4273 19.9827 54.4273 20.1145V21.3545C54.4273 21.8954 54.5969 22.3519 54.9345 22.7247C55.2738 23.0967 55.7145 23.2835 56.2582 23.2835C56.8946 23.2835 57.39 23.0432 57.7443 22.5643C58.0994 22.0845 58.2769 21.4521 58.2769 20.6663Z" fill="white"/>
<path d="M69.7791 21.5232C69.7791 22.4005 69.4676 23.1143 68.8422 23.6653C68.155 24.2675 67.1984 24.5682 65.9691 24.5682C64.8341 24.5682 63.9242 24.3543 63.2354 23.9257L63.627 22.5485C64.3688 22.9872 65.1828 23.2073 66.0697 23.2073C66.7062 23.2073 67.2015 23.0662 67.5574 22.7857C67.9117 22.5051 68.0885 22.1285 68.0885 21.6588C68.0885 21.2403 67.9426 20.8877 67.6502 20.6017C67.3593 20.3158 66.8734 20.0499 66.195 19.8043C64.3482 19.1308 63.4256 18.1442 63.4256 16.8469C63.4256 15.999 63.749 15.3038 64.3966 14.7629C65.0417 14.2212 65.9025 13.9507 66.9788 13.9507C67.9387 13.9507 68.736 14.1142 69.3725 14.4405L68.95 15.7874C68.3556 15.4712 67.6834 15.3131 66.9313 15.3131C66.3368 15.3131 65.8724 15.4565 65.5395 15.7417C65.2581 15.9967 65.117 16.3075 65.117 16.6756C65.117 17.0832 65.2779 17.4204 65.6013 17.6854C65.8827 17.9303 66.3939 18.1954 67.1358 18.4813C68.0433 18.8386 68.7099 19.2563 69.1386 19.7353C69.5659 20.2127 69.7791 20.8102 69.7791 21.5232Z" fill="white"/>
<path d="M75.366 18.2185H73.5034V21.8292C73.5034 22.7476 73.8316 23.2064 74.4894 23.2064C74.7914 23.2064 75.0419 23.1808 75.24 23.1297L75.2868 24.3844C74.9539 24.5061 74.5156 24.5673 73.9727 24.5673C73.3053 24.5673 72.7838 24.3681 72.4073 23.9706C72.0324 23.5722 71.8438 22.9042 71.8438 21.9656V18.217H70.7341V16.977H71.8438V15.6153L73.5034 15.1255V16.977H75.366V18.2185Z" fill="white"/>
<path d="M83.7699 20.6358C83.7699 21.7789 83.4354 22.7174 82.7681 23.4514C82.0682 24.207 81.1393 24.5836 79.9813 24.5836C78.8653 24.5836 77.9768 24.2217 77.3142 23.4979C76.6516 22.774 76.3203 21.8603 76.3203 20.759C76.3203 19.6066 76.6611 18.6626 77.3451 17.9287C78.0276 17.194 78.9485 16.8267 80.1065 16.8267C81.2225 16.8267 82.1205 17.1886 82.7982 17.9132C83.4465 18.6161 83.7699 19.5237 83.7699 20.6358ZM82.0167 20.6893C82.0167 20.0034 81.8669 19.4152 81.5633 18.9246C81.209 18.3309 80.7026 18.0349 80.0463 18.0349C79.367 18.0349 78.8511 18.3317 78.4968 18.9246C78.1932 19.4159 78.0434 20.0135 78.0434 20.7203C78.0434 21.4061 78.1932 21.9944 78.4968 22.4842C78.8622 23.0778 79.3726 23.3739 80.0312 23.3739C80.6764 23.3739 81.1829 23.0716 81.5483 22.4687C81.8597 21.9688 82.0167 21.3744 82.0167 20.6893Z" fill="white"/>
<path d="M89.2626 18.432C89.0953 18.4017 88.917 18.3862 88.7299 18.3862C88.1355 18.3862 87.6758 18.6056 87.3524 19.045C87.071 19.4325 86.9299 19.9223 86.9299 20.5136V24.4157H85.2409L85.2568 19.3209C85.2568 18.4637 85.2354 17.6833 85.1934 16.9796H86.6652L86.727 18.4025H86.7738C86.9521 17.9135 87.2335 17.5198 87.6187 17.2245C87.9952 16.9587 88.4018 16.8262 88.8401 16.8262C88.9962 16.8262 89.1373 16.837 89.2626 16.8564V18.432Z" fill="white"/>
<path d="M96.8199 20.3452C96.8199 20.6413 96.8001 20.8908 96.7581 21.0947H91.6887C91.7085 21.8294 91.9534 22.3912 92.4242 22.7787C92.8514 23.1252 93.4038 23.2988 94.0823 23.2988C94.8329 23.2988 95.5177 23.1817 96.1335 22.9469L96.3982 24.0939C95.6786 24.4008 94.8289 24.5535 93.8485 24.5535C92.6691 24.5535 91.7433 24.214 91.0696 23.5359C90.3975 22.8578 90.0607 21.9472 90.0607 20.8048C90.0607 19.6834 90.3737 18.7495 91.0007 18.0047C91.657 17.2096 92.5439 16.812 93.6598 16.812C94.756 16.812 95.5858 17.2096 96.1494 18.0047C96.5956 18.6364 96.8199 19.4176 96.8199 20.3452ZM95.2086 19.9167C95.2197 19.4269 95.1095 19.0037 94.8804 18.6464C94.588 18.1869 94.1386 17.9575 93.5338 17.9575C92.9814 17.9575 92.532 18.1814 92.1888 18.6309C91.9074 18.9882 91.7402 19.4168 91.6887 19.9159H95.2086V19.9167Z" fill="white"/>
</svg>
