<svg width="96.573730" height="108.524048" viewBox="0 0 96.5737 108.524" fill="none" xmlns="http://www.w3.org/2000/svg" xmlns:xlink="http://www.w3.org/1999/xlink">
	<desc>
			Created with Pixso.
	</desc>
	<defs/>
	<path id="Vector" d="M67.17 9.48C61.98 8.09 56.95 6.35 51.72 4.9C48.69 4.05 35.71 0.59 34.95 0.97C23.18 6.94 12.33 9.63 1 16.73C12.7 20.64 24.62 24.15 36.7 27.25C37.44 27.44 38.21 27.63 38.98 27.56C39.84 27.47 72.75 10.98 72.75 10.98C70.89 10.48 69.03 9.98 67.17 9.48Z" stroke="#CAA75D" stroke-opacity="1.000000" stroke-width="2.000000" stroke-linejoin="round"/>
	<path id="Vector" d="M38.78 27.56C39.11 51.72 38.77 83.36 37.83 107.52L1 96.47C1.55 72.66 1 42.77 1.1 17.74" stroke="#CAA75D" stroke-opacity="1.000000" stroke-width="2.000000" stroke-linejoin="round" stroke-linecap="round"/>
	<path id="Vector" d="M72.62 11.36C72.83 26.74 72.88 45.87 72.78 61.26C72.73 68.95 72.74 78.61 72.61 86.3" stroke="#CAA75D" stroke-opacity="1.000000" stroke-width="2.000000" stroke-linejoin="round" stroke-linecap="round"/>
	<path id="Vector" d="M37.83 107.52C45.81 102.53 86.54 78.89 94.52 73.91C94.73 59.47 95.29 28.41 95.57 22.53C88.57 26.23 81.21 29.64 72.97 33.68" stroke="#CAA75D" stroke-opacity="1.000000" stroke-width="2.000000" stroke-linejoin="round" stroke-linecap="round"/>
	<path id="Vector" d="M95.57 22.53C88.57 20.79 79.94 18.65 72.83 17.1" stroke="#CAA75D" stroke-opacity="1.000000" stroke-width="2.000000" stroke-linejoin="round" stroke-linecap="round"/>
	<path id="Vector" d="M61.79 92.7C61.8 87.35 61.88 82.57 61.79 76.89C59.22 78.39 54.38 80.83 49.97 83.36C49.97 83.36 49.79 94.09 49.97 99.52" stroke="#CAA75D" stroke-opacity="1.000000" stroke-width="2.000000" stroke-linejoin="round" stroke-linecap="round"/>
	<path id="Vector" d="M66.17 56.34C59.14 60.29 51.9 64.1 45.56 67.34" stroke="#CAA75D" stroke-opacity="1.000000" stroke-width="2.000000" stroke-linejoin="round" stroke-linecap="round"/>
	<path id="Vector" d="M66.17 39.71C59.14 43.65 51.9 47.46 45.56 50.71" stroke="#CAA75D" stroke-opacity="1.000000" stroke-width="2.000000" stroke-linejoin="round" stroke-linecap="round"/>
	<path id="Vector" d="M66.17 22.53C59.14 26.47 51.9 30.28 45.56 33.53" stroke="#CAA75D" stroke-opacity="1.000000" stroke-width="2.000000" stroke-linejoin="round" stroke-linecap="round"/>
	<path id="Vector" d="M65.98 64.54C62.28 66.61 50.68 72.94 45.74 75.46" stroke="#CAA75D" stroke-opacity="1.000000" stroke-width="2.000000" stroke-linejoin="round" stroke-linecap="round"/>
	<path id="Vector" d="M65.98 47.91C62.28 49.97 50.68 56.31 45.74 58.82" stroke="#CAA75D" stroke-opacity="1.000000" stroke-width="2.000000" stroke-linejoin="round" stroke-linecap="round"/>
	<path id="Vector" d="M65.98 31.28C62.28 33.34 50.68 39.67 45.74 42.19" stroke="#CAA75D" stroke-opacity="1.000000" stroke-width="2.000000" stroke-linejoin="round" stroke-linecap="round"/>
	<path id="Vector" d="M30.5 32.67C26.43 31.41 11.7 27.35 7.08 25.86" stroke="#CAA75D" stroke-opacity="1.000000" stroke-width="2.000000" stroke-linejoin="round" stroke-linecap="round"/>
	<path id="Vector" d="M30.5 49.2C26.43 47.94 11.7 43.88 7.08 42.4" stroke="#CAA75D" stroke-opacity="1.000000" stroke-width="2.000000" stroke-linejoin="round" stroke-linecap="round"/>
	<path id="Vector" d="M30.5 65.73C26.43 64.47 11.7 60.41 7.08 58.93" stroke="#CAA75D" stroke-opacity="1.000000" stroke-width="2.000000" stroke-linejoin="round" stroke-linecap="round"/>
	<path id="Vector" d="M30.5 82.26C26.43 81 11.7 76.94 7.08 75.46" stroke="#CAA75D" stroke-opacity="1.000000" stroke-width="2.000000" stroke-linejoin="round" stroke-linecap="round"/>
	<path id="Vector" d="M30.5 98.79C26.43 97.53 11.7 93.47 7.08 91.99" stroke="#CAA75D" stroke-opacity="1.000000" stroke-width="2.000000" stroke-linejoin="round" stroke-linecap="round"/>
	<path id="Vector" d="M30.5 40.93C26.43 39.68 11.7 35.61 7.08 34.13" stroke="#CAA75D" stroke-opacity="1.000000" stroke-width="2.000000" stroke-linejoin="round" stroke-linecap="round"/>
	<path id="Vector" d="M30.5 57.47C26.43 56.21 11.7 52.14 7.08 50.66" stroke="#CAA75D" stroke-opacity="1.000000" stroke-width="2.000000" stroke-linejoin="round" stroke-linecap="round"/>
	<path id="Vector" d="M30.5 74C26.43 72.74 11.7 68.67 7.08 67.19" stroke="#CAA75D" stroke-opacity="1.000000" stroke-width="2.000000" stroke-linejoin="round" stroke-linecap="round"/>
	<path id="Vector" d="M30.5 90.53C26.43 89.27 11.7 85.2 7.08 83.72" stroke="#CAA75D" stroke-opacity="1.000000" stroke-width="2.000000" stroke-linejoin="round" stroke-linecap="round"/>
	<path id="Vector" d="M89.51 59.56C85.74 61.68 81.85 63.72 78.44 65.47" stroke="#CAA75D" stroke-opacity="1.000000" stroke-width="2.000000" stroke-linejoin="round" stroke-linecap="round"/>
	<path id="Vector" d="M89.51 42.37C85.74 44.49 81.85 46.54 78.44 48.28" stroke="#CAA75D" stroke-opacity="1.000000" stroke-width="2.000000" stroke-linejoin="round" stroke-linecap="round"/>
	<path id="Vector" d="M89.51 68.12C87.48 69.25 81.14 72.71 78.44 74.09" stroke="#CAA75D" stroke-opacity="1.000000" stroke-width="2.000000" stroke-linejoin="round" stroke-linecap="round"/>
	<path id="Vector" d="M89.51 50.94C87.48 52.06 81.14 55.53 78.44 56.9" stroke="#CAA75D" stroke-opacity="1.000000" stroke-width="2.000000" stroke-linejoin="round" stroke-linecap="round"/>
	<path id="Vector" d="M89.51 33.75C87.48 34.88 81.14 38.34 78.44 39.72" stroke="#CAA75D" stroke-opacity="1.000000" stroke-width="2.000000" stroke-linejoin="round" stroke-linecap="round"/>
</svg>
