<svg width="107" height="31" viewBox="0 0 107 31" fill="none" xmlns="http://www.w3.org/2000/svg">
<path d="M103.037 31H3.96296C1.78432 31 0 29.2553 0 27.125V3.875C0 1.74472 1.78432 3.33786e-06 3.96296 3.33786e-06H103.037C105.216 3.33786e-06 107 1.74472 107 3.875V27.125C107 29.2553 105.216 31 103.037 31Z" fill="black"/>
<path d="M103.037 0.620972C104.872 0.620972 106.365 2.08088 106.365 3.875V27.125C106.365 28.9191 104.872 30.379 103.037 30.379H3.96296C2.12811 30.379 0.635065 28.9191 0.635065 27.125V3.875C0.635065 2.08088 2.12811 0.620972 3.96296 0.620972H103.037ZM103.037 3.33786e-06H3.96296C1.78432 3.33786e-06 0 1.74472 0 3.875V27.125C0 29.2553 1.78432 31 3.96296 31H103.037C105.216 31 107 29.2553 107 27.125V3.875C107 1.74472 105.216 3.33786e-06 103.037 3.33786e-06Z" fill="#A6A6A6"/>
<path d="M7.67628 5.84225C7.44346 6.08057 7.30872 6.4516 7.30872 6.9321V24.0712C7.30872 24.5517 7.44346 24.9228 7.67628 25.1611L7.73374 25.2134L17.5559 15.6131V15.3864L7.73374 5.78607L7.67628 5.84225Z" fill="white"/>
<path d="M22.0152 18.8149L18.7448 15.6132V15.3865L22.0192 12.1848L22.0925 12.2265L25.9703 14.3839C27.0769 14.9961 27.0769 16.0036 25.9703 16.6198L22.0925 18.7733L22.0152 18.8149Z" fill="white"/>
<path d="M21.4981 19.3694L18.1504 16.096L8.27075 25.7573C8.63832 26.1351 9.23771 26.1806 9.91934 25.8028L21.4981 19.3694Z" fill="white"/>
<path d="M21.4981 11.6304L9.91934 5.19694C9.23771 4.823 8.63832 4.86853 8.27075 5.24634L18.1504 14.9038L21.4981 11.6304Z" fill="white"/>
<path d="M37.5828 7.93884C37.5828 8.58597 37.3846 9.10425 36.9943 9.49078C36.5455 9.949 35.9609 10.1796 35.2446 10.1796C34.56 10.1796 33.9755 9.94512 33.496 9.48303C33.0155 9.01416 32.7757 8.43872 32.7757 7.74994C32.7757 7.06116 33.0155 6.48572 33.496 6.02072C33.9755 5.55475 34.56 5.32031 35.2446 5.32031C35.5854 5.32031 35.9104 5.38909 36.2205 5.51697C36.5296 5.64581 36.7813 5.82019 36.9636 6.03525L36.5494 6.44406C36.2314 6.07691 35.7984 5.89575 35.2446 5.89575C34.7453 5.89575 34.3123 6.06625 33.9448 6.41016C33.5812 6.75503 33.3989 7.20163 33.3989 7.74994C33.3989 8.29825 33.5812 8.74872 33.9448 9.09359C34.3123 9.43362 34.7453 9.608 35.2446 9.608C35.7747 9.608 36.2205 9.43362 36.5722 9.08972C36.804 8.86206 36.9358 8.54819 36.9705 8.14713H35.2446V7.58719H37.5471C37.5748 7.70828 37.5828 7.8255 37.5828 7.93884Z" fill="white" stroke="white" stroke-width="0.16" stroke-miterlimit="10"/>
<path d="M41.2356 5.99735H39.0728V7.46985H41.0226V8.02979H39.0728V9.50229H41.2356V10.0729H38.4606V5.42676H41.2356V5.99735Z" fill="white" stroke="white" stroke-width="0.16" stroke-miterlimit="10"/>
<path d="M43.8135 10.0729H43.2012V5.99735H41.8746V5.42676H45.1411V5.99735H43.8135V10.0729Z" fill="white" stroke="white" stroke-width="0.16" stroke-miterlimit="10"/>
<path d="M47.505 10.0729V5.42676H48.1163V10.0729H47.505Z" fill="white" stroke="white" stroke-width="0.16" stroke-miterlimit="10"/>
<path d="M50.826 10.0729H50.2186V5.99735H48.8871V5.42676H52.1575V5.99735H50.826V10.0729Z" fill="white" stroke="white" stroke-width="0.16" stroke-miterlimit="10"/>
<path d="M58.3417 9.47528C57.8731 9.94513 57.2925 10.1796 56.6 10.1796C55.9035 10.1796 55.3229 9.94513 54.8543 9.47528C54.3867 9.00641 54.1539 8.43097 54.1539 7.74994C54.1539 7.06891 54.3867 6.49347 54.8543 6.02459C55.3229 5.55475 55.9035 5.32031 56.6 5.32031C57.2886 5.32031 57.8691 5.55475 58.3378 6.02847C58.8094 6.50122 59.0422 7.07278 59.0422 7.74994C59.0422 8.43097 58.8094 9.00641 58.3417 9.47528ZM55.3071 9.08584C55.6598 9.43362 56.0888 9.608 56.6 9.608C57.1073 9.608 57.5402 9.43362 57.889 9.08584C58.2407 8.73806 58.419 8.29147 58.419 7.74994C58.419 7.20841 58.2407 6.76181 57.889 6.41403C57.5402 6.06625 57.1073 5.89188 56.6 5.89188C56.0888 5.89188 55.6598 6.06625 55.3071 6.41403C54.9554 6.76181 54.777 7.20841 54.777 7.74994C54.777 8.29147 54.9554 8.73806 55.3071 9.08584Z" fill="white" stroke="white" stroke-width="0.16" stroke-miterlimit="10"/>
<path d="M59.9012 10.0729V5.42676H60.6442L62.9546 9.04019H62.9814L62.9546 8.14701V5.42676H63.5659V10.0729H62.9279L60.5085 6.28119H60.4818L60.5085 7.17826V10.0729H59.9012Z" fill="white" stroke="white" stroke-width="0.16" stroke-miterlimit="10"/>
<path d="M54.0033 16.8583C52.1417 16.8583 50.6209 18.2436 50.6209 20.1549C50.6209 22.0508 52.1417 23.4506 54.0033 23.4506C55.8689 23.4506 57.3897 22.0508 57.3897 20.1549C57.3897 18.2436 55.8689 16.8583 54.0033 16.8583ZM54.0033 22.1525C52.9818 22.1525 52.1031 21.3281 52.1031 20.1549C52.1031 18.9663 52.9818 18.1564 54.0033 18.1564C55.0248 18.1564 55.9075 18.9663 55.9075 20.1549C55.9075 21.3281 55.0248 22.1525 54.0033 22.1525ZM46.6233 16.8583C44.7577 16.8583 43.2409 18.2436 43.2409 20.1549C43.2409 22.0508 44.7577 23.4506 46.6233 23.4506C48.4878 23.4506 50.0057 22.0508 50.0057 20.1549C50.0057 18.2436 48.4878 16.8583 46.6233 16.8583ZM46.6233 22.1525C45.6008 22.1525 44.7191 21.3281 44.7191 20.1549C44.7191 18.9663 45.6008 18.1564 46.6233 18.1564C47.6447 18.1564 48.5235 18.9663 48.5235 20.1549C48.5235 21.3281 47.6447 22.1525 46.6233 22.1525ZM37.8414 17.8687V19.2695H41.2624C41.1623 20.0523 40.8948 20.6277 40.4846 21.0288C39.9853 21.5131 39.2076 22.0508 37.8414 22.0508C35.736 22.0508 34.0874 20.3894 34.0874 18.3308C34.0874 16.2722 35.736 14.6108 37.8414 14.6108C38.9797 14.6108 39.808 15.0458 40.4193 15.6096L41.4288 14.6224C40.5738 13.8242 39.4364 13.2109 37.8414 13.2109C34.9543 13.2109 32.528 15.5078 32.528 18.3308C32.528 21.1537 34.9543 23.4506 37.8414 23.4506C39.4018 23.4506 40.5738 22.9508 41.4952 22.013C42.4394 21.0898 42.7336 19.7917 42.7336 18.7435C42.7336 18.418 42.7059 18.1186 42.6564 17.8687H37.8414ZM73.7517 18.9547C73.4733 18.2174 72.6144 16.8583 70.8647 16.8583C69.1309 16.8583 67.6874 18.1942 67.6874 20.1549C67.6874 22.0014 69.1161 23.4506 71.0312 23.4506C72.5797 23.4506 73.4733 22.5274 73.8409 21.9898L72.6916 21.2409C72.3082 21.7892 71.7861 22.1525 71.0312 22.1525C70.2812 22.1525 69.7432 21.8163 69.3984 21.1537L73.9073 19.3296L73.7517 18.9547ZM69.1547 20.0523C69.1161 18.7813 70.1643 18.1303 70.9152 18.1303C71.5037 18.1303 72.0031 18.418 72.1695 18.8297L69.1547 20.0523ZM65.4899 23.2501H66.9721V13.5626H65.4899V23.2501ZM63.0626 17.5926H63.0131C62.6802 17.207 62.0451 16.8583 61.2407 16.8583C59.5524 16.8583 58.0089 18.3075 58.0089 20.1656C58.0089 22.013 59.5524 23.4506 61.2407 23.4506C62.0451 23.4506 62.6802 23.099 63.0131 22.7018H63.0626V23.1745C63.0626 24.4349 62.3741 25.112 61.2634 25.112C60.3579 25.112 59.7962 24.4727 59.5643 23.935L58.2754 24.461C58.6469 25.3348 59.6307 26.4102 61.2634 26.4102C63.0012 26.4102 64.4675 25.4104 64.4675 22.9779V17.0588H63.0626V17.5926ZM61.3675 22.1525C60.346 22.1525 59.491 21.3165 59.491 20.1656C59.491 19.0041 60.346 18.1564 61.3675 18.1564C62.3741 18.1564 63.1677 19.0041 63.1677 20.1656C63.1677 21.3165 62.3741 22.1525 61.3675 22.1525ZM80.6909 13.5626H77.146V23.2501H78.6242V19.5795H80.6909C82.3325 19.5795 83.9425 18.418 83.9425 16.5706C83.9425 14.7241 82.3286 13.5626 80.6909 13.5626ZM80.7295 18.232H78.6242V14.9101H80.7295C81.8332 14.9101 82.4633 15.8062 82.4633 16.5706C82.4633 17.3204 81.8332 18.232 80.7295 18.232ZM89.8671 16.8399C88.7991 16.8399 87.6885 17.301 87.2317 18.323L88.5435 18.8607C88.8258 18.323 89.345 18.1487 89.8939 18.1487C90.6607 18.1487 91.4384 18.5991 91.4503 19.3945V19.4962C91.1828 19.3451 90.6102 19.1213 89.9057 19.1213C88.493 19.1213 87.0534 19.8818 87.0534 21.301C87.0534 22.5991 88.2106 23.4351 89.5114 23.4351C90.5061 23.4351 91.055 22.9963 91.3998 22.4858H91.4503V23.2346H92.878V19.5185C92.878 17.8009 91.5662 16.8399 89.8671 16.8399ZM89.6888 22.1486C89.2053 22.1486 88.5316 21.9142 88.5316 21.3281C88.5316 20.5783 89.3717 20.2906 90.0989 20.2906C90.7499 20.2906 91.055 20.431 91.4503 20.6161C91.3344 21.5131 90.5448 22.1486 89.6888 22.1486ZM98.0794 17.052L96.3802 21.2516H96.3297L94.5731 17.052H92.979L95.6184 22.9207L94.1124 26.1864H95.657L99.724 17.052H98.0794ZM84.7549 23.2501H86.237V13.5626H84.7549V23.2501Z" fill="white"/>
</svg>
