<svg width="134" height="195" viewBox="0 0 134 195" fill="none" xmlns="http://www.w3.org/2000/svg">
<mask id="path-1-outside-1_349_1318" maskUnits="userSpaceOnUse" x="-17.4994" y="-24.7481" width="159.521" height="237.05" fill="black">
<rect fill="white" x="-17.4994" y="-24.7481" width="159.521" height="237.05"/>
<path d="M45.4276 116.45L44.4654 116.684C39.7528 117.83 34.7748 116.746 30.9654 113.744C27.7107 111.18 25.5951 107.438 25.0751 103.327L25.0147 102.85C24.5375 99.0763 25.4858 95.2608 27.6739 92.15C30.4016 88.2723 34.7758 85.8817 39.5125 85.6801L42.2429 85.5639C49.7943 85.2426 56.8804 89.0359 60.8191 95.3906L58.3488 104.033C56.5878 110.194 51.6541 114.935 45.4276 116.45Z"/>
</mask>
<path d="M44.4654 116.684L44.3472 116.198L44.4654 116.684ZM45.4276 116.45L45.5458 116.936L45.4276 116.45ZM0.834283 188.585C0.689403 188.82 0.762526 189.128 0.99761 189.273L4.82852 191.634C5.0636 191.778 5.37162 191.705 5.5165 191.47C5.66138 191.235 5.58826 190.927 5.35317 190.782L1.94793 188.684L4.04656 185.278C4.19144 185.043 4.11832 184.735 3.88324 184.59C3.64815 184.446 3.34013 184.519 3.19525 184.754L0.834283 188.585ZM38.22 180.073L38.1045 179.586L38.22 180.073ZM69.454 111.911L69.0101 112.141L69.454 111.911ZM61.608 96.7795L61.1641 97.0096L61.1641 97.0096L61.608 96.7795ZM58.3488 104.033L58.8296 104.17L58.3488 104.033ZM76.3285 41.1295L75.8478 40.9921L76.3285 41.1295ZM42.2429 85.5639L42.2216 85.0644L42.2429 85.5639ZM39.5125 85.6801L39.5337 86.1797L39.5125 85.6801ZM114.763 5.40323L114.865 5.89272L114.763 5.40323ZM25.0147 102.85L24.5187 102.912L25.0147 102.85ZM25.0751 103.327L25.5712 103.265L25.5712 103.265L25.0751 103.327ZM30.9654 113.744L30.6559 114.137L30.9654 113.744ZM86.1885 22.5278L85.8049 22.207L86.1885 22.5278ZM27.6739 92.15L28.0829 92.4377L27.6739 92.15ZM1.25994 188.847L1.37543 189.333L5.99544 188.237L5.87995 187.75L5.76446 187.264L1.14445 188.36L1.25994 188.847ZM15.12 185.557L15.2354 186.043L24.4755 183.85L24.36 183.363L24.2445 182.877L15.0045 185.07L15.12 185.557ZM33.6 181.169L33.7155 181.656L38.3355 180.559L38.22 180.073L38.1045 179.586L33.4845 180.683L33.6 181.169ZM38.22 180.073L38.3355 180.559C40.1312 180.133 41.8753 179.614 43.5647 179.008L43.3959 178.537L43.2272 178.067C41.5727 178.66 39.8642 179.168 38.1045 179.586L38.22 180.073ZM53.0604 173.772L53.3314 174.192C56.4267 172.195 59.2412 169.869 61.7449 167.279L61.3854 166.931L61.0259 166.584C58.5746 169.12 55.8193 171.397 52.7894 173.351L53.0604 173.772ZM67.9491 158.386L68.3775 158.643C70.255 155.525 71.7777 152.203 72.9134 148.745L72.4384 148.589L71.9633 148.433C70.851 151.819 69.3597 155.074 67.5208 158.128L67.9491 158.386ZM74.6257 138.037L75.1236 138.083C75.4507 134.495 75.375 130.845 74.8662 127.197L74.371 127.266L73.8758 127.335C74.3738 130.906 74.448 134.48 74.1277 137.992L74.6257 138.037ZM71.6705 116.834L72.1372 116.654C71.4929 114.979 70.7475 113.319 69.8979 111.681L69.454 111.911L69.0101 112.141C69.8427 113.747 70.5729 115.373 71.2038 117.013L71.6705 116.834ZM69.454 111.911L69.8979 111.681L67.9364 107.898L67.4925 108.128L67.0486 108.358L69.0101 112.141L69.454 111.911ZM63.5695 100.562L64.0134 100.332L62.0519 96.5493L61.608 96.7795L61.1641 97.0096L63.1256 100.793L63.5695 100.562ZM61.608 96.7795L62.0519 96.5493C61.7995 96.0625 61.5299 95.5882 61.2441 95.1271L60.8191 95.3906L60.3941 95.654C60.6665 96.0935 60.9235 96.5455 61.1641 97.0096L61.608 96.7795ZM60.8191 95.3906L60.3383 95.2531L59.7208 97.4137L60.2015 97.5511L60.6823 97.6885L61.2998 95.528L60.8191 95.3906ZM58.9664 101.872L58.4857 101.735L57.8681 103.895L58.3488 104.033L58.8296 104.17L59.4471 102.01L58.9664 101.872ZM58.3488 104.033L57.8681 103.895C57.4437 105.38 56.8299 106.78 56.0545 108.068L56.4829 108.326L56.9112 108.584C57.7315 107.221 58.3808 105.74 58.8296 104.17L58.3488 104.033ZM49.7913 114.756L49.5506 114.318C48.2328 115.041 46.8098 115.599 45.3095 115.964L45.4276 116.45L45.5458 116.936C47.1325 116.55 48.6378 115.96 50.0319 115.194L49.7913 114.756ZM45.4276 116.45L45.3095 115.964L45.0689 116.022L45.1871 116.508L45.3052 116.994L45.5458 116.936L45.4276 116.45ZM44.706 116.625L44.5878 116.14L44.3472 116.198L44.4654 116.684L44.5836 117.17L44.8241 117.111L44.706 116.625ZM44.4654 116.684L44.3472 116.198C43.2135 116.474 42.0639 116.616 40.9199 116.63L40.9259 117.13L40.9319 117.63C42.151 117.615 43.3758 117.463 44.5836 117.17L44.4654 116.684ZM33.9989 115.622L34.2123 115.17C33.1775 114.681 32.1913 114.074 31.2748 113.352L30.9654 113.744L30.6559 114.137C31.6322 114.907 32.683 115.554 33.7856 116.074L33.9989 115.622ZM30.9654 113.744L31.2748 113.352C30.4906 112.734 29.7746 112.045 29.1338 111.298L28.7543 111.624L28.3748 111.949C29.0576 112.745 29.8204 113.479 30.6559 114.137L30.9654 113.744ZM25.7527 106.315L26.2273 106.158C25.9174 105.224 25.6965 104.255 25.5712 103.265L25.0751 103.327L24.5791 103.39C24.7126 104.445 24.948 105.477 25.2781 106.473L25.7527 106.315ZM25.0751 103.327L25.5712 103.265L25.5561 103.145L25.06 103.208L24.564 103.271L24.5791 103.39L25.0751 103.327ZM25.0298 102.969L25.5259 102.906L25.5108 102.787L25.0147 102.85L24.5187 102.912L24.5338 103.032L25.0298 102.969ZM25.0147 102.85L25.5108 102.787C25.3959 101.878 25.3664 100.967 25.4196 100.065L24.9205 100.035L24.4214 100.006C24.3645 100.969 24.396 101.942 24.5187 102.912L25.0147 102.85ZM26.2731 94.5928L26.7279 94.8005C27.1034 93.9781 27.556 93.1868 28.0829 92.4377L27.6739 92.15L27.265 91.8623C26.7024 92.6621 26.2192 93.507 25.8183 94.3852L26.2731 94.5928ZM27.6739 92.15L28.0829 92.4377C28.7383 91.5059 29.4919 90.663 30.3248 89.9193L29.9917 89.5463L29.6587 89.1734C28.7694 89.9676 27.9647 90.8676 27.265 91.8623L27.6739 92.15ZM36.0694 86.2248L36.2035 86.7065C37.2792 86.4072 38.3956 86.2281 39.5337 86.1797L39.5125 85.6801L39.4912 85.1806C38.2761 85.2323 37.0841 85.4235 35.9354 85.7431L36.0694 86.2248ZM39.5125 85.6801L39.5337 86.1797L40.2163 86.1506L40.1951 85.6511L40.1738 85.1515L39.4912 85.1806L39.5125 85.6801ZM41.5603 85.593L41.5816 86.0925L42.2642 86.0635L42.2429 85.5639L42.2216 85.0644L41.539 85.0934L41.5603 85.593ZM42.2429 85.5639L42.2642 86.0635C44.0845 85.986 45.8769 86.1535 47.602 86.543L47.7121 86.0553L47.8223 85.5676C46.0119 85.1588 44.1312 84.9831 42.2216 85.0644L42.2429 85.5639ZM57.3351 91.1461L56.9939 91.5116C58.2907 92.722 59.4375 94.1106 60.3941 95.654L60.8191 95.3906L61.2441 95.1271C60.2403 93.5077 59.0369 92.0507 57.6763 90.7806L57.3351 91.1461ZM60.8191 95.3906L61.2998 95.528L62.5923 91.0062L62.1115 90.8688L61.6308 90.7314L60.3383 95.2531L60.8191 95.3906ZM64.6964 81.8253L65.1772 81.9627L67.7621 72.9192L67.2813 72.7818L66.8006 72.6444L64.2157 81.6879L64.6964 81.8253ZM69.8662 63.7383L70.347 63.8757L72.9319 54.8322L72.4511 54.6948L71.9704 54.5574L69.3855 63.6009L69.8662 63.7383ZM75.036 45.6513L75.5168 45.7887L76.8092 41.2669L76.3285 41.1295L75.8478 40.9921L74.5553 45.5139L75.036 45.6513ZM76.3285 41.1295L76.8092 41.2669C77.2913 39.5806 77.8602 37.9242 78.5128 36.304L78.049 36.1172L77.5852 35.9303C76.9197 37.5828 76.3394 39.2722 75.8478 40.9921L76.3285 41.1295ZM83.0061 26.7652L83.421 27.0442C84.3956 25.5947 85.447 24.194 86.5721 22.8485L86.1885 22.5278L85.8049 22.207C84.6575 23.5793 83.5851 25.0079 82.5911 26.4863L83.0061 26.7652ZM86.1885 22.5278L86.5721 22.8485C87.4733 21.7707 88.4165 20.7345 89.3984 19.742L89.0429 19.3903L88.6875 19.0387C87.686 20.051 86.7241 21.1078 85.8049 22.207L86.1885 22.5278ZM95.4864 13.8839L95.7783 14.2898C98.0533 12.6536 100.461 11.2105 102.977 9.97583L102.757 9.52697L102.536 9.07812C99.9706 10.3374 97.5147 11.8092 95.1945 13.478L95.4864 13.8839ZM110.651 6.44108L110.793 6.92035C112.131 6.52243 113.49 6.17927 114.865 5.89272L114.763 5.40323L114.661 4.91373C113.259 5.20598 111.873 5.55597 110.508 5.96183L110.651 6.44108ZM114.763 5.40323L114.865 5.89272L119.549 4.91685L119.447 4.42736L119.346 3.93786L114.661 4.91373L114.763 5.40323ZM128.816 2.47562L128.918 2.96512L133.602 1.98925L133.5 1.49975L133.398 1.01026L128.714 1.98613L128.816 2.47562ZM44.4654 116.684L44.229 115.712L44.229 115.712L44.4654 116.684ZM45.4276 116.45L45.664 117.421L45.664 117.421L45.4276 116.45ZM0.408628 188.322C0.118867 188.792 0.265114 189.409 0.73528 189.698L8.39709 194.42C8.86726 194.71 9.4833 194.564 9.77306 194.094C10.0628 193.623 9.91658 193.007 9.44641 192.718L2.63591 188.52L6.83319 181.71C7.12295 181.24 6.9767 180.624 6.50653 180.334C6.03637 180.044 5.42032 180.19 5.13056 180.66L0.408628 188.322ZM38.22 180.073L37.989 179.1L38.22 180.073ZM69.454 111.911L68.5663 112.371L69.454 111.911ZM61.608 96.7795L60.7202 97.2398L61.608 96.7795ZM58.3488 104.033L59.3103 104.308L58.3488 104.033ZM76.3285 41.1295L75.367 40.8547L76.3285 41.1295ZM42.2429 85.5639L42.2004 84.5648L42.2004 84.5648L42.2429 85.5639ZM39.5125 85.6801L39.555 86.6792L39.5125 85.6801ZM114.763 5.40323L114.967 6.3822L114.763 5.40323ZM25.0147 102.85L24.0226 102.975L25.0147 102.85ZM25.0751 103.327L26.0672 103.202L26.0672 103.202L25.0751 103.327ZM30.9654 113.744L30.3464 114.53L30.3464 114.53L30.9654 113.744ZM86.1885 22.5278L85.4214 21.8863L86.1885 22.5278ZM27.6739 92.15L28.4919 92.7253L27.6739 92.15ZM1.25994 188.847L1.49092 189.82L6.11093 188.723L5.87995 187.75L5.64897 186.777L1.02896 187.874L1.25994 188.847ZM15.12 185.557L15.3509 186.53L24.5909 184.336L24.36 183.363L24.129 182.39L14.889 184.584L15.12 185.557ZM33.6 181.169L33.831 182.142L38.451 181.046L38.22 180.073L37.989 179.1L33.369 180.197L33.6 181.169ZM38.22 180.073L38.451 181.046C40.2647 180.615 42.0266 180.09 43.7334 179.479L43.3959 178.537L43.0584 177.596C41.4215 178.183 39.7307 178.686 37.989 179.1L38.22 180.073ZM53.0604 173.772L53.6024 174.612C56.7304 172.594 59.5746 170.244 62.1044 167.626L61.3854 166.931L60.6664 166.236C58.2413 168.745 55.5156 170.998 52.5184 172.931L53.0604 173.772ZM67.9491 158.386L68.8058 158.901C70.7027 155.751 72.241 152.394 73.3884 148.901L72.4384 148.589L71.4883 148.277C70.3877 151.628 68.912 154.848 67.0925 157.87L67.9491 158.386ZM74.6257 138.037L75.6215 138.128C75.9521 134.503 75.8756 130.814 75.3614 127.128L74.371 127.266L73.3806 127.404C73.8733 130.936 73.9466 134.472 73.6298 137.947L74.6257 138.037ZM71.6705 116.834L72.6038 116.475C71.9529 114.783 71.1999 113.106 70.3418 111.451L69.454 111.911L68.5663 112.371C69.3903 113.961 70.1128 115.57 70.7372 117.193L71.6705 116.834ZM69.454 111.911L70.3418 111.451L68.3803 107.668L67.4925 108.128L66.6048 108.588L68.5663 112.371L69.454 111.911ZM63.5695 100.562L64.4572 100.102L62.4957 96.3191L61.608 96.7795L60.7202 97.2398L62.6817 101.023L63.5695 100.562ZM61.608 96.7795L62.4957 96.3191C62.2374 95.821 61.9615 95.3356 61.669 94.8637L60.8191 95.3906L59.9691 95.9174C60.2348 96.3461 60.4855 96.787 60.7202 97.2398L61.608 96.7795ZM60.8191 95.3906L59.8576 95.1157L59.24 97.2763L60.2015 97.5511L61.163 97.826L61.7806 95.6654L60.8191 95.3906ZM58.9664 101.872L58.0049 101.597L57.3874 103.758L58.3488 104.033L59.3103 104.308L59.9279 102.147L58.9664 101.872ZM58.3488 104.033L57.3874 103.758C56.9752 105.2 56.3791 106.559 55.6261 107.81L56.4829 108.326L57.3396 108.841C58.1823 107.442 58.8493 105.921 59.3103 104.308L58.3488 104.033ZM49.7913 114.756L49.31 113.88C48.0303 114.582 46.6484 115.124 45.1913 115.478L45.4276 116.45L45.664 117.421C47.2939 117.025 48.8403 116.419 50.2725 115.633L49.7913 114.756ZM45.4276 116.45L45.1913 115.478L44.9507 115.537L45.1871 116.508L45.4234 117.48L45.664 117.421L45.4276 116.45ZM44.706 116.625L44.4696 115.654L44.229 115.712L44.4654 116.684L44.7017 117.656L44.9423 117.597L44.706 116.625ZM44.4654 116.684L44.229 115.712C43.1323 115.979 42.0204 116.117 40.9138 116.13L40.9259 117.13L40.938 118.13C42.1945 118.115 43.4569 117.958 44.7017 117.656L44.4654 116.684ZM33.9989 115.622L34.4256 114.717C33.4248 114.245 32.4708 113.658 31.5843 112.959L30.9654 113.744L30.3464 114.53C31.3527 115.323 32.4358 115.99 33.5722 116.526L33.9989 115.622ZM30.9654 113.744L31.5843 112.959C30.8257 112.361 30.1332 111.695 29.5133 110.973L28.7543 111.624L27.9953 112.275C28.6991 113.095 29.4853 113.851 30.3464 114.53L30.9654 113.744ZM25.7527 106.315L26.7018 106C26.4022 105.097 26.1884 104.16 26.0672 103.202L25.0751 103.327L24.083 103.453C24.2206 104.54 24.4633 105.604 24.8035 106.63L25.7527 106.315ZM25.0751 103.327L26.0672 103.202L26.0521 103.082L25.06 103.208L24.0679 103.333L24.083 103.453L25.0751 103.327ZM25.0298 102.969L26.0219 102.844L26.0068 102.724L25.0147 102.85L24.0226 102.975L24.0377 103.094L25.0298 102.969ZM25.0147 102.85L26.0068 102.724C25.8958 101.846 25.8673 100.966 25.9188 100.094L24.9205 100.035L23.9222 99.9763C23.8636 100.971 23.896 101.974 24.0226 102.975L25.0147 102.85ZM26.2731 94.5928L27.1828 95.0081C27.5455 94.2136 27.9828 93.4491 28.4919 92.7253L27.6739 92.15L26.856 91.5747C26.2756 92.3998 25.7771 93.2715 25.3634 94.1775L26.2731 94.5928ZM27.6739 92.15L28.4919 92.7253C29.1251 91.8251 29.8532 91.0107 30.6578 90.2922L29.9917 89.5463L29.3256 88.8004C28.4081 89.6198 27.5779 90.5484 26.856 91.5747L27.6739 92.15ZM36.0694 86.2248L36.3375 87.1882C37.3767 86.899 38.4553 86.726 39.555 86.6792L39.5125 85.6801L39.47 84.681C38.2164 84.7344 36.9865 84.9316 35.8014 85.2614L36.0694 86.2248ZM39.5125 85.6801L39.555 86.6792L40.2376 86.6502L40.1951 85.6511L40.1526 84.652L39.47 84.681L39.5125 85.6801ZM41.5603 85.593L41.6028 86.5921L42.2854 86.563L42.2429 85.5639L42.2004 84.5648L41.5178 84.5939L41.5603 85.593ZM42.2429 85.5639L42.2854 86.563C44.0611 86.4875 45.8093 86.6508 47.4919 87.0308L47.7121 86.0553L47.9324 85.0799C46.0794 84.6615 44.1545 84.4817 42.2004 84.5648L42.2429 85.5639ZM57.3351 91.1461L56.6528 91.8772C57.9175 93.0577 59.036 94.412 59.9691 95.9174L60.8191 95.3906L61.669 94.8637C60.6417 93.2063 59.4101 91.715 58.0175 90.4151L57.3351 91.1461ZM60.8191 95.3906L61.7806 95.6654L63.073 91.1436L62.1115 90.8688L61.15 90.594L59.8576 95.1157L60.8191 95.3906ZM64.6964 81.8253L65.6579 82.1001L68.2428 73.0566L67.2813 72.7818L66.3198 72.507L63.7349 81.5505L64.6964 81.8253ZM69.8662 63.7383L70.8277 64.0131L73.4126 54.9696L72.4511 54.6948L71.4896 54.42L68.9047 63.4635L69.8662 63.7383ZM75.036 45.6513L75.9975 45.9261L77.29 41.4044L76.3285 41.1295L75.367 40.8547L74.0746 45.3765L75.036 45.6513ZM76.3285 41.1295L77.29 41.4044C77.7672 39.7348 78.3305 38.0949 78.9766 36.4908L78.049 36.1172L77.1215 35.7435C76.4494 37.4121 75.8634 39.118 75.367 40.8547L76.3285 41.1295ZM83.0061 26.7652L83.836 27.3232C84.8008 25.8881 85.8418 24.5013 86.9557 23.1692L86.1885 22.5278L85.4214 21.8863C84.2627 23.272 83.1798 24.7145 82.1762 26.2073L83.0061 26.7652ZM86.1885 22.5278L86.9557 23.1692C87.8479 22.1021 88.7817 21.0763 89.7538 20.0936L89.0429 19.3903L88.332 18.687C87.3208 19.7093 86.3495 20.7763 85.4214 21.8863L86.1885 22.5278ZM95.4864 13.8839L96.0703 14.6957C98.3226 13.0758 100.707 11.6471 103.197 10.4247L102.757 9.52697L102.316 8.62928C99.7253 9.90085 97.2454 11.387 94.9025 13.0721L95.4864 13.8839ZM110.651 6.44108L110.936 7.39962C112.261 7.00565 113.606 6.6659 114.967 6.3822L114.763 5.40323L114.559 4.42425C113.143 4.71935 111.744 5.07275 110.366 5.48256L110.651 6.44108ZM114.763 5.40323L114.967 6.3822L119.651 5.40634L119.447 4.42736L119.244 3.44838L114.559 4.42425L114.763 5.40323ZM128.816 2.47562L129.02 3.4546L133.704 2.47873L133.5 1.49975L133.296 0.520777L128.612 1.49664L128.816 2.47562Z" fill="white" mask="url(#path-1-outside-1_349_1318)"/>
</svg>
