<svg width="282" height="58" viewBox="0 0 282 58" fill="none" xmlns="http://www.w3.org/2000/svg">
<path d="M245.773 26.8645H236.202L235.57 25.0402H259.908L259.276 26.8645H249.98V52.8554H245.773V26.8645Z" fill="#002244"/>
<path d="M0 25.0402H11.2247C14.1377 25.0402 18.3807 26.892 20.1609 28.6992C21.9411 30.5063 22.8312 32.9069 22.8312 35.9008C22.8312 38.0855 22.3052 39.9736 21.2533 41.565C20.2283 43.1293 18.8123 44.2487 17.0052 44.923L22.2648 52.7289H16.9622L12.3828 46.2025H4.18491V52.7289H0V25.0402ZM4.18491 44.6322L8.29397 44.6322C10.8563 44.6322 14.4866 44.1661 16.024 42.6017C17.5615 41.0373 18.6463 38.3148 18.6463 35.6985C18.6463 33.1631 17.5615 30.1784 16.024 28.641C14.4866 27.0766 10.8563 26.6105 8.29397 26.6105H4.18491V44.6322Z" fill="#002244"/>
<path d="M30.8353 48.887C28.2877 46.3257 26.3818 42.9705 26.3818 38.8213C26.3818 34.672 28.2877 31.3168 30.8353 28.7556C33.3829 26.1943 36.6923 24.5976 40.7635 24.5976C44.8346 24.5976 48.144 26.1943 50.6916 28.7556C53.2392 31.3168 54.8291 34.672 54.8291 38.8213C54.8291 42.9705 53.2392 46.3257 50.6916 48.887C48.144 51.4482 44.8346 53.0449 40.7635 53.0449C36.6923 53.0449 33.3829 51.4482 30.8353 48.887ZM33.1207 29.6008C31.1975 31.9315 30.552 35.005 30.552 38.8213C30.552 42.6375 32.1457 45.7238 34.0689 48.0802C36.0171 50.4109 38.2486 51.5763 41.3956 51.5763C44.5426 51.5763 46.1295 50.4109 48.0527 48.0802C50.0009 45.7238 50.6589 42.6375 50.6589 38.8213C50.6589 35.005 49.0526 31.9315 47.1045 29.6008C45.1813 27.2444 43.9105 26.3823 40.7635 26.3823C37.6164 26.3823 35.0688 27.2444 33.1207 29.6008Z" fill="#002244"/>
<path d="M54.2393 25.0402H59.5824L67.4617 37.7796L75.3409 25.0402H78.0213L68.903 39.8606V52.7289H64.7181V41.6661L54.2393 25.0402Z" fill="#002244"/>
<path d="M77.1104 52.7287H75.1027L86.1731 25.3561H90.0091L100.761 52.7287H95.9767L93.8197 46.837H79.5834L77.1104 52.7287ZM86.7218 28.5194L80.1094 45.2667H93.2938L86.7218 28.5194Z" fill="#002244"/>
<path d="M134.004 52.7287H131.996L143.067 25.3561H146.903L157.655 52.7287H152.87L150.713 46.837H136.477L134.004 52.7287ZM143.616 28.5194L137.003 45.2667H150.187L143.616 28.5194Z" fill="#002244"/>
<path d="M180.785 52.7287H178.777L189.847 25.3561H193.683L204.435 52.7287H199.651L197.494 46.837H183.258L180.785 52.7287ZM190.396 28.5194L183.784 45.2667H196.968L190.396 28.5194Z" fill="#002244"/>
<path d="M258.351 52.7287H256.343L267.413 25.3561H271.249L282.001 52.7287H277.217L275.06 46.837H260.824L258.351 52.7287ZM267.962 28.5194L261.35 45.2667H274.534L267.962 28.5194Z" fill="#002244"/>
<path d="M104.553 52.8552V25.3561H108.761V50.9912H123.202L121.305 52.8552H104.553Z" fill="#002244"/>
<path d="M155.83 25.2294H160.197L169.863 49.4981L179.172 25.2294H181.116L170.499 52.7284H166.447L155.83 25.2294Z" fill="#002244"/>
<path d="M208.778 25.2294H210.595L230.823 45.1858V25.2294H232.168V52.7284H229.558L210.068 31.7722V52.7284H208.724L208.778 25.2294Z" fill="#002244"/>
<path d="M209.405 4.84208C209.405 4.84208 210.604 9.36134 210.827 12.428C211.055 15.5698 211.459 17.6434 210.511 20.4881C209.894 22.3397 208.844 23.0406 207.666 24.5971C205.897 26.9355 202.767 30.2866 202.767 30.2866L204.979 35.818L206.56 41.3494L207.35 46.0907L209.088 46.8809C209.088 46.8809 204.573 46.088 202.451 45.1424C200.275 44.1731 197.235 41.9816 197.235 41.9816C197.235 41.9816 194.244 39.5269 193.126 37.3984C191.922 35.1045 191.704 30.9188 191.704 30.9188L190.124 25.7034C190.124 25.7034 189.038 22.8973 187.911 22.0685C185.957 20.6319 181.747 20.4881 181.747 20.4881C181.747 20.4881 183.17 15.7469 189.649 15.7469C196.129 15.7469 196.632 19.6486 197.393 18.9077C200.376 16.0059 203.482 15.9899 206.086 12.7441C206.921 11.7027 207.285 10.8921 207.824 9.74133C208.735 7.7973 209.405 4.84208 209.405 4.84208Z" fill="white"/>
<path d="M165.827 21.7405C165.905 22.0647 165.982 22.3889 166.06 22.7131C165.982 22.3889 165.943 22.2268 165.944 22.2267C166.971 21.9881 168.062 21.7962 169.108 21.6478C174.852 20.9361 181.142 20.6851 186.086 22.5934C186.128 22.6125 186.168 22.6319 186.209 22.6515C191.84 26.0381 188.896 37.1871 195.97 42.2087C200.66 46.0865 206.714 47.4819 212.501 47.6203C213.57 47.6383 214.658 47.6174 215.726 47.5132C214.654 47.5189 213.574 47.4448 212.518 47.3362C206.802 46.7196 201.061 44.9155 196.92 41.1226C194.186 38.6746 192.867 35.1818 192.195 31.519C191.386 28.0818 191.476 23.092 187.085 20.8536C187.032 20.8278 186.979 20.8026 186.925 20.7779C180.732 18.5001 174.808 20.4287 169.085 21.5212C168.052 21.7495 166.971 21.9882 165.944 22.2267C165.943 22.2268 165.905 22.0647 165.827 21.7405Z" fill="#002244"/>
<path d="M181.15 20.0892C181.442 20.2497 181.734 20.4102 182.026 20.5707C182.501 19.8331 183.155 19.1073 183.849 18.5105C185.553 17.0262 187.744 16.2304 189.943 16.3645C197.028 15.9597 199.078 24.2454 201.894 30.004C202.131 30.559 202.346 31.0633 202.582 31.6215C205.573 38.7178 207.199 46.3887 207.43 54.2257C207.453 55.1882 207.454 56.1947 207.399 57.1534C207.591 56.2115 207.722 55.2069 207.824 54.2413C208.596 46.3731 207.473 38.2636 204.42 30.8527C204.186 30.2882 203.973 29.7784 203.733 29.2176C202.373 26.0806 200.998 22.9371 199.093 19.97C198.125 18.5055 196.975 17.0225 195.321 16.0273C193.654 15.0125 191.716 14.8204 189.986 14.8129C187.393 14.7624 184.837 15.8703 183.05 17.6377C182.308 18.3637 181.672 19.1466 181.15 20.0892Z" fill="#002244"/>
<path d="M209.245 4.05174C209.117 5.15116 208.811 6.22197 208.424 7.23562C207.693 9.13878 206.599 10.8566 205.228 12.2767C202.898 14.7969 199.255 15.7761 196.311 18.385C195.357 19.2141 194.504 20.1464 193.753 21.1561C189.396 27.2906 189.427 36.9526 195.663 41.7218C200.429 45.6492 206.523 47.1419 212.399 47.4956C213.499 47.5529 214.621 47.5735 215.724 47.5129C214.621 47.4771 213.509 47.3638 212.426 47.2183C206.633 46.4061 200.822 44.5139 196.592 40.6607C191.199 36.1203 191.555 27.7072 195.344 22.3485C196.025 21.4458 196.779 20.6282 197.624 19.8935C200.112 17.6117 203.877 16.3739 206.31 13.2112C207.654 11.494 208.57 9.48026 208.997 7.40268C209.222 6.29625 209.333 5.15872 209.245 4.05174Z" fill="#002244"/>
<path d="M208.936 0.907369C208.617 1.00178 208.297 1.09619 207.977 1.1906C208.297 1.09607 208.457 1.04949 208.457 1.0505C208.741 2.03275 208.987 3.0542 209.199 4.05116C210.212 9.30939 211.032 15.1425 209.623 19.8654C209.252 20.8156 208.717 21.7562 208.14 22.675C206.866 24.6797 205.291 26.6027 203.661 28.3462L203.724 28.2878C201.653 30.2019 199.876 32.3531 198.814 35.0525C197.626 37.6818 198.374 41.3866 200.764 43.0964C204.135 45.886 208.408 47.298 212.62 47.5561C213.66 47.6174 214.7 47.6213 215.727 47.5129C214.695 47.5158 213.669 47.4102 212.653 47.2537C208.531 46.6083 204.575 44.9114 201.609 42.1309C197.416 38.5533 201.397 32.8571 204.972 29.7565L205.035 29.6981C206.82 27.8596 208.44 25.9244 209.832 23.7411C210.459 22.7394 211.023 21.6726 211.4 20.4783C212.669 14.5321 210.594 9.30437 209.296 4.02745C209.023 3.04437 208.741 2.0327 208.457 1.0505C208.457 1.04949 208.617 1.0019 208.936 0.907369Z" fill="#002244"/>
</svg>
