<svg width="90.000000" height="87.162964" viewBox="0 0 90 87.163" fill="none" xmlns="http://www.w3.org/2000/svg" xmlns:xlink="http://www.w3.org/1999/xlink">
	<desc>
			Created with Pixso.
	</desc>
	<defs/>
	<path id="Vector" d="M41.86 40.66C41.88 40.68 41.89 40.68 41.89 40.68C42.14 40.97 42.43 41.25 42.74 41.49C44.01 42.47 45.38 43.32 46.82 44.02" stroke="#CAA75D" stroke-opacity="1.000000" stroke-width="2.000000" stroke-linejoin="round" stroke-linecap="round"/>
	<path id="Vector" d="M42.79 39.57C42.82 39.67 42.84 39.75 42.87 39.82C43.3 40.71 44.76 41.69 46.77 42.57" stroke="#CAA75D" stroke-opacity="1.000000" stroke-width="2.000000" stroke-linejoin="round" stroke-linecap="round"/>
	<path id="Vector" d="M48.14 34.53C46.26 33.93 44.58 33.25 43.3 32.53" stroke="#CAA75D" stroke-opacity="1.000000" stroke-width="2.000000" stroke-linejoin="round" stroke-linecap="round"/>
	<path id="Vector" d="M80.52 23.34C80.52 22.93 80.52 22.54 80.5 22.17" stroke="#CAA75D" stroke-opacity="1.000000" stroke-width="2.000000" stroke-linejoin="round" stroke-linecap="round"/>
	<path id="Vector" d="M41.63 21.92C41.81 22.1 41.99 22.26 42.19 22.41C44.58 24.28 47.32 25.62 50.24 26.5" stroke="#CAA75D" stroke-opacity="1.000000" stroke-width="2.000000" stroke-linejoin="round" stroke-linecap="round"/>
	<path id="Vector" d="M42.19 21.2C42.2 21.32 42.24 21.4 42.27 21.46C42.99 22.98 46.67 24.69 50.97 25.95" stroke="#CAA75D" stroke-opacity="1.000000" stroke-width="2.000000" stroke-linejoin="round" stroke-linecap="round"/>
	<path id="Vector" d="M79.56 23C79.9 22.74 80.23 22.46 80.5 22.17C80.83 21.84 81.12 21.48 81.37 21.12C82.13 19.95 81.74 10.06 81.74 10.06" stroke="#CAA75D" stroke-opacity="1.000000" stroke-width="2.000000" stroke-linejoin="round" stroke-linecap="round"/>
	<path id="Vector" d="M41.91 8.25C42.19 7.76 42.58 7.34 42.99 6.94C49.15 1.22 60.47 0.07 68.59 1.63C72.14 2.32 75.79 3.52 78.71 5.75C81.14 7.6 83.14 10.56 80.49 13.17C76.41 17.16 67.86 18.56 62.2 18.78C55.54 19 48.69 17.37 43.52 13.35C43.21 13.1 42.94 12.84 42.68 12.55" stroke="#CAA75D" stroke-opacity="1.000000" stroke-width="2.000000" stroke-linejoin="round" stroke-linecap="round"/>
	<path id="Vector" d="M72.45 8.64C71.05 7.58 68 6.53 66.29 6.2C62.4 5.46 56.96 6.01 54.01 8.75C53.71 9.03 53.44 9.36 53.33 9.74C53.11 10.51 52 12.99 59.75 14.35" stroke="#CAA75D" stroke-opacity="1.000000" stroke-width="2.000000" stroke-linejoin="round" stroke-linecap="round"/>
	<path id="Vector" d="M54.18 6.99L64.6 11.6" stroke="#CAA75D" stroke-opacity="1.000000" stroke-width="2.000000" stroke-linejoin="round" stroke-linecap="round"/>
	<path id="Vector" d="M57.57 5.51L68 10.13" stroke="#CAA75D" stroke-opacity="1.000000" stroke-width="2.000000" stroke-linejoin="round" stroke-linecap="round"/>
	<path id="Vector" d="M2.95 50.41C3.03 53.39 3.25 59.06 3.69 59.97C4.28 61.23 6.94 62.63 10.28 63.79" stroke="#CAA75D" stroke-opacity="1.000000" stroke-width="2.000000" stroke-linejoin="round" stroke-linecap="round"/>
	<path id="Vector" d="M4.66 51.61L4.95 51.86C6.95 53.44 9.22 54.63 11.63 55.51" stroke="#CAA75D" stroke-opacity="1.000000" stroke-width="2.000000" stroke-linejoin="round" stroke-linecap="round"/>
	<path id="Vector" d="M1.56 38.23L1.56 38.3C1.58 39.18 1.79 48.47 2.34 49.64C2.46 49.9 2.67 50.15 2.95 50.41C3.35 50.82 3.94 51.22 4.66 51.61C6.4 52.58 8.89 53.52 11.58 54.27" stroke="#CAA75D" stroke-opacity="1.000000" stroke-width="2.000000" stroke-linejoin="round" stroke-linecap="round"/>
	<path id="Vector" d="M13.96 46.22C10.18 45.4 6.61 43.87 3.6 41.53C2.55 40.71 1.69 39.52 1.56 38.3C1.54 38.27 1.54 38.25 1.56 38.23C1.51 37.88 1.54 37.53 1.64 37.17C1.87 36.38 2.44 35.71 3.08 35.12C3.11 35.09 3.16 35.06 3.19 35.02" stroke="#CAA75D" stroke-opacity="1.000000" stroke-width="2.000000" stroke-linejoin="round" stroke-linecap="round"/>
	<path id="Vector" d="M3.04 31.86C3.09 32.86 3.12 33.96 3.19 35.02C3.3 37.26 3.48 39.33 3.74 39.85C4.62 41.74 10.03 43.91 15.54 45.13" stroke="#CAA75D" stroke-opacity="1.000000" stroke-width="2.000000" stroke-linejoin="round" stroke-linecap="round"/>
	<path id="Vector" d="M40.05 42.06C40.31 41.9 40.56 41.74 40.79 41.58C41.18 41.28 41.54 40.97 41.86 40.66L41.89 40.63C42.24 40.3 42.55 39.95 42.79 39.57C42.81 39.55 42.82 39.52 42.84 39.51C43.28 38.85 43.33 35.4 43.3 32.53C43.28 30.33 43.21 28.46 43.21 28.46" stroke="#CAA75D" stroke-opacity="1.000000" stroke-width="2.000000" stroke-linejoin="round" stroke-linecap="round"/>
	<path id="Vector" d="M41.36 25.18C43.17 26.99 44.16 29.4 41.96 31.55C37.89 35.56 29.33 36.96 23.69 37.16C19.58 37.31 15.43 36.75 11.63 35.35C11.6 35.35 11.57 35.33 11.55 35.33" stroke="#CAA75D" stroke-opacity="1.000000" stroke-width="2.000000" stroke-linejoin="round" stroke-linecap="round"/>
	<path id="Vector" d="M41.36 22.21C41.41 25.23 41.39 29.48 40.9 30.22C37.74 34.97 27.39 36.57 21.75 36.77C15.07 37 3.16 33.41 1.8 30.56C1.22 29.32 1.01 19.17 1.01 19.17" stroke="#CAA75D" stroke-opacity="1.000000" stroke-width="2.000000" stroke-linejoin="round" stroke-linecap="round"/>
	<path id="Vector" d="M2.55 16.02C2.54 16.02 2.53 16.03 2.52 16.04C1.9 16.62 1.33 17.29 1.1 18.09C0.65 19.7 1.69 21.38 3.06 22.44C8.23 26.47 15.07 28.1 21.75 27.87C23.4 27.82 25.27 27.66 27.23 27.35" stroke="#CAA75D" stroke-opacity="1.000000" stroke-width="2.000000" stroke-linejoin="round" stroke-linecap="round"/>
	<path id="Vector" d="M2.34 10.09C2.34 10.09 2.54 20.26 3.12 21.49C4.48 24.35 16.4 27.93 23.07 27.7C28.72 27.5 39.07 25.9 42.22 21.15C43 19.99 42.61 10.09 42.61 10.09" stroke="#CAA75D" stroke-opacity="1.000000" stroke-width="2.000000" stroke-linejoin="round" stroke-linecap="round"/>
	<path id="Vector" d="M3.85 6.97C3.22 7.56 2.65 8.23 2.43 9.03C1.97 10.63 3.01 12.31 4.38 13.38C9.56 17.41 16.4 19.03 23.07 18.8C28.72 18.6 37.28 17.2 41.35 13.2C44 10.59 42 7.62 39.58 5.78C36.66 3.56 33.01 2.34 29.44 1.66C21.33 0.11 10.01 1.25 3.85 6.97Z" stroke="#CAA75D" stroke-opacity="1.000000" stroke-width="2.000000" stroke-linejoin="round"/>
	<path id="Vector" d="M31.89 8.27C31.89 8.27 25.14 4.94 21.44 6.81C17.18 8.96 28.27 10.02 25.7 12.2C24.11 13.55 18.62 14.23 13.65 11.71" stroke="#CAA75D" stroke-opacity="1.000000" stroke-width="2.000000" stroke-linejoin="round" stroke-linecap="round"/>
	<path id="Vector" d="M13.54 14.26C13.54 14.26 30.07 5.52 30.21 5.47" stroke="#CAA75D" stroke-opacity="1.000000" stroke-width="2.000000" stroke-linejoin="round" stroke-linecap="round"/>
	<path id="Vector" d="M87.58 60.81C87.64 63.8 87.64 68.68 87.12 69.46C83.97 74.22 73.61 75.81 67.97 76.01C63.55 76.16 56.86 74.64 52.42 72.78" stroke="#CAA75D" stroke-opacity="1.000000" stroke-width="2.000000" stroke-linejoin="round" stroke-linecap="round"/>
	<path id="Vector" d="M50.48 62.57C55.47 65.96 61.79 67.32 67.97 67.11C72.78 66.95 79.72 65.91 84.17 63.1" stroke="#CAA75D" stroke-opacity="1.000000" stroke-width="2.000000" stroke-linejoin="round" stroke-linecap="round"/>
	<path id="Vector" d="M88.89 48.63C88.89 48.63 89.29 58.52 88.52 59.68C88.26 60.07 87.93 60.46 87.58 60.81C86.68 61.7 85.51 62.45 84.17 63.1C79.69 65.25 73.35 66.1 69.36 66.23C63.9 66.41 54.92 64.05 51.09 61.6" stroke="#CAA75D" stroke-opacity="1.000000" stroke-width="2.000000" stroke-linejoin="round" stroke-linecap="round"/>
	<path id="Vector" d="M87.04 45.34C88.85 47.17 89.84 49.56 87.64 51.73C83.57 55.72 75.01 57.14 69.36 57.33C65.25 57.48 61.08 56.91 57.26 55.51C57.25 55.51 57.23 55.49 57.2 55.49" stroke="#CAA75D" stroke-opacity="1.000000" stroke-width="2.000000" stroke-linejoin="round" stroke-linecap="round"/>
	<path id="Vector" d="M46.69 39.33C46.69 39.33 46.74 41.92 46.85 44.66" stroke="#CAA75D" stroke-opacity="1.000000" stroke-width="2.000000" stroke-linejoin="round" stroke-linecap="round"/>
	<path id="Vector" d="M51.8 53.67C53.37 54.35 55.24 54.97 57.2 55.49C57.23 55.49 57.25 55.51 57.26 55.51C60.8 56.44 64.58 57.02 67.42 56.93C73.07 56.73 83.42 55.13 86.58 50.39C86.92 49.87 87.04 47.65 87.04 45.34C87.05 44.33 87.05 43.29 87.04 42.37" stroke="#CAA75D" stroke-opacity="1.000000" stroke-width="2.000000" stroke-linejoin="round" stroke-linecap="round"/>
	<path id="Vector" d="M73.35 47.46C73.23 47.49 73.12 47.51 73.01 47.51C71.02 47.82 69.09 47.96 67.42 48.03C60.75 48.27 53.91 46.64 48.74 42.62C47.37 41.54 46.33 39.86 46.78 38.27C47.01 37.47 47.57 36.78 48.2 36.21L48.22 36.2" stroke="#CAA75D" stroke-opacity="1.000000" stroke-width="2.000000" stroke-linejoin="round" stroke-linecap="round"/>
	<path id="Vector" d="M48.01 30.26C48.01 30.26 48.21 40.43 48.8 41.66C50.16 44.52 62.08 48.1 68.75 47.87C74.4 47.67 84.75 46.07 87.9 41.32C88.67 40.16 88.28 30.26 88.28 30.26" stroke="#CAA75D" stroke-opacity="1.000000" stroke-width="2.000000" stroke-linejoin="round" stroke-linecap="round"/>
	<path id="Vector" d="M49.53 27.14C48.9 27.73 48.33 28.4 48.1 29.2C47.65 30.8 48.69 32.48 50.06 33.55C55.23 37.58 62.08 39.2 68.75 38.97C74.4 38.77 82.96 37.37 87.03 33.37C89.68 30.76 87.68 27.79 85.25 25.95C82.33 23.73 78.69 22.51 75.12 21.83C67.01 20.28 55.69 21.42 49.53 27.14Z" stroke="#CAA75D" stroke-opacity="1.000000" stroke-width="2.000000" stroke-linejoin="round"/>
	<path id="Vector" d="M60.27 33.61L68.81 29.06" stroke="#CAA75D" stroke-opacity="1.000000" stroke-width="2.000000" stroke-linejoin="round" stroke-linecap="round"/>
	<path id="Vector" d="M58.99 30.26L67.1 33.86" stroke="#CAA75D" stroke-opacity="1.000000" stroke-width="2.000000" stroke-linejoin="round" stroke-linecap="round"/>
	<path id="Vector" d="M62.16 28.63L70.28 32.22" stroke="#CAA75D" stroke-opacity="1.000000" stroke-width="2.000000" stroke-linejoin="round" stroke-linecap="round"/>
	<path id="Vector" d="M69.82 24.74L68.81 29.06L79.92 28.58" stroke="#CAA75D" stroke-opacity="1.000000" stroke-width="2.000000" stroke-linejoin="round" stroke-linecap="round"/>
	<path id="Vector" d="M52.34 68.55C52.34 68.55 52.73 78.44 51.97 79.6C48.81 84.35 38.46 85.95 32.8 86.15C26.14 86.38 14.22 82.79 12.85 79.94C12.5 79.17 12.28 75.02 12.15 71.95" stroke="#CAA75D" stroke-opacity="1.000000" stroke-width="2.000000" stroke-linejoin="round" stroke-linecap="round"/>
	<path id="Vector" d="M50.48 65.25C52.28 67.08 53.27 69.48 51.09 71.64C47.01 75.65 38.46 77.05 32.8 77.25C28.71 77.4 24.54 76.84 20.74 75.44L20.71 75.44" stroke="#CAA75D" stroke-opacity="1.000000" stroke-width="2.000000" stroke-linejoin="round" stroke-linecap="round"/>
	<path id="Vector" d="M50.48 62.3C50.53 65.32 50.52 69.56 50.03 70.31C46.87 75.07 36.52 76.65 30.86 76.86C24.2 77.09 12.28 73.5 10.91 70.65C10.33 69.41 10.13 59.24 10.13 59.24" stroke="#CAA75D" stroke-opacity="1.000000" stroke-width="2.000000" stroke-linejoin="round" stroke-linecap="round"/>
	<path id="Vector" d="M11.66 56.11L11.65 56.13C11.01 56.71 10.44 57.38 10.23 58.18C9.76 59.79 10.8 61.46 12.19 62.53C17.35 66.56 24.2 68.19 30.86 67.96C32.48 67.89 34.32 67.73 36.24 67.45" stroke="#CAA75D" stroke-opacity="1.000000" stroke-width="2.000000" stroke-linejoin="round" stroke-linecap="round"/>
	<path id="Vector" d="M11.46 50.18C11.46 50.18 11.66 60.34 12.25 61.58C13.61 64.44 25.52 68.02 32.19 67.79C37.84 67.59 48.19 65.99 51.35 61.24C52.12 60.07 51.73 50.18 51.73 50.18" stroke="#CAA75D" stroke-opacity="1.000000" stroke-width="2.000000" stroke-linejoin="round" stroke-linecap="round"/>
	<path id="Vector" d="M12.97 47.06C12.34 47.64 11.78 48.32 11.55 49.12C11.09 50.72 12.13 52.4 13.51 53.47C18.68 57.5 25.52 59.12 32.19 58.89C37.84 58.69 46.4 57.28 50.47 53.29C53.12 50.68 51.13 47.71 48.7 45.87C45.78 43.65 42.13 42.43 38.57 41.75C30.46 40.19 19.13 41.34 12.97 47.06Z" stroke="#CAA75D" stroke-opacity="1.000000" stroke-width="2.000000" stroke-linejoin="round"/>
	<path id="Vector" d="M39.66 48.41C39.73 47.58 39.29 46.81 38.64 46.29C38 45.78 37.16 45.5 36.3 45.33C34.73 45.03 33.05 45.08 31.43 45.48C30.34 45.75 29.23 46.2 28.48 47.02C27.96 47.58 27.64 48.27 27.12 48.83C26.59 49.38 25.78 49.76 25.06 50.02C24 50.39 22.82 50.55 21.74 50.46L29.76 54.25" stroke="#CAA75D" stroke-opacity="1.000000" stroke-width="2.000000" stroke-linejoin="round" stroke-linecap="round"/>
	<path id="Vector" d="M25.29 47.75L31.09 50.24" stroke="#CAA75D" stroke-opacity="1.000000" stroke-width="2.000000" stroke-linejoin="round" stroke-linecap="round"/>
</svg>
