<svg width="75.572266" height="96.574951" viewBox="0 0 75.5723 96.575" fill="none" xmlns="http://www.w3.org/2000/svg" xmlns:xlink="http://www.w3.org/1999/xlink">
	<desc>
			Created with Pixso.
	</desc>
	<defs/>
	<path id="Vector" d="M61.55 22C49.4 25.45 37.53 30.09 26.52 35.54C24.23 36.67 21.95 37.89 20.22 39.57C16.19 43.46 16.08 50.31 16.16 55.09C16.34 65.12 16.8 75.94 18.57 85.9" stroke="#CAA75D" stroke-opacity="1.000000" stroke-width="2.000000" stroke-linejoin="round" stroke-linecap="round"/>
	<path id="Vector" d="M74.55 46.92C74.65 53.59 74.37 60.25 73.95 66.91C73.66 71.54 71.62 76.02 67.17 78.87C62.08 82.13 56.43 84.75 50.58 86.96C45.26 88.97 38.6 91.95 32.6 91.76C31.77 91.73 30.89 91.6 30.29 91.13C29.25 90.31 29.33 88.68 29.13 87.58C28.83 85.86 28.66 84.12 28.5 82.39C27.97 76.79 27.75 71.16 27.67 65.55C27.58 59.27 26.18 52 29.37 46.1C29.86 45.19 30.46 44.3 31.33 43.61C31.99 43.08 32.79 42.68 33.58 42.29C43.33 37.45 53.79 33.18 64.23 29.37C64.75 29.18 65.27 28.98 65.79 28.79C67.39 28.21 69.15 27.61 70.86 27.95C75.01 28.78 73.87 34.22 74.07 36.61C74.35 40.04 74.5 43.48 74.55 46.92Z" stroke="#CAA75D" stroke-opacity="1.000000" stroke-width="2.000000" stroke-linejoin="round"/>
	<path id="Vector" d="M34.33 91.94C33.21 92.13 29.77 91.52 28.82 91.13C25.63 89.82 22.61 88.19 19.68 86.54C18.06 85.62 16.47 84.68 14.9 83.71C14.21 83.28 13.45 82.89 12.78 82.47C11.99 81.98 12.05 81.14 12.12 80.38C12.29 78.57 12.22 76.74 11.92 74.94C11.77 74.06 11.57 73.19 11.17 72.37C10.24 70.45 8.33 68.98 6.39 67.66C5.09 66.79 4.78 66.1 4.64 64.76C4.49 63.35 4.37 61.93 4.27 60.51C4.06 57.68 3.94 54.85 3.87 52.01C3.73 46.76 2.15 41.33 4.38 36.22C5.31 34.09 7.03 32.14 9.42 31.01C11.14 30.21 13.24 29.69 15.07 29C17.09 28.23 19.13 27.5 21.15 26.74C27.63 24.29 34.13 21.86 40.72 19.62C42.16 19.13 43.74 18.96 45.17 18.45C51.54 16.21 68.87 24.66 73.09 29.32" stroke="#CAA75D" stroke-opacity="1.000000" stroke-width="2.000000" stroke-linejoin="round" stroke-linecap="round"/>
	<path id="Vector" d="M30.26 22.01C30.24 17.25 30.01 9.6 29.64 4.84C29.54 3.5 29.17 1.87 27.62 1.42C26.69 1.15 24.5 1.64 23.26 1.94C18.87 3.03 11.37 4.35 10 8.45C9.47 10.02 9.69 11.58 9.82 13.18C10.2 17.78 10.46 24.71 10.65 29.32" stroke="#CAA75D" stroke-opacity="1.000000" stroke-width="2.000000" stroke-linejoin="round" stroke-linecap="round"/>
	<path id="Vector" d="M33.43 20.66C33.42 15.9 33.23 10.3 32.86 5.54C32.76 4.2 32.39 2.57 30.84 2.12C29.91 1.84 27.72 2.33 26.48 2.64C22.09 3.72 14.59 5.05 13.22 9.15C12.69 10.71 12.91 12.28 13.04 13.88C13.42 18.48 13.64 23.04 13.83 27.65" stroke="#CAA75D" stroke-opacity="1.000000" stroke-width="2.000000" stroke-linejoin="round" stroke-linecap="round"/>
	<path id="Vector" d="M14.02 3.61C14.86 3.8 15.57 4.21 16.31 4.56C16.95 4.85 17.68 5.36 17.52 6.04C17.37 6.68 16.4 7.01 15.62 6.86C14.24 6.61 12.77 5.45 12.98 4.21C13.03 3.93 13.19 3.72 13.44 3.63C13.6 3.57 13.8 3.56 14.02 3.61Z" stroke="#CAA75D" stroke-opacity="1.000000" stroke-width="2.000000" stroke-linejoin="round"/>
	<path id="Vector" d="M13.26 3.66C16.25 2.76 19.19 1.78 22.27 1.12C22.64 1.04 23.02 0.97 23.4 1.01C23.8 1.05 24.17 1.22 24.5 1.41C25.13 1.77 25.68 2.24 26.12 2.77C26.27 2.95 26.41 3.15 26.42 3.36C26.45 3.93 25.67 4.27 25.02 4.46C23.58 4.88 22.14 5.31 20.71 5.73C19.65 6.05 16.97 6.65 17.06 6.62" stroke="#CAA75D" stroke-opacity="1.000000" stroke-width="2.000000" stroke-linejoin="round" stroke-linecap="round"/>
	<path id="Vector" d="M2.77 68.55C1 69.73 0.93 72.48 1.02 74.19C1.13 76.34 1.89 78.48 3.27 80.32C3.83 81.06 4.49 81.76 5.35 82.26C6.45 82.91 8.22 83.3 9.41 82.56C11.21 81.43 10.97 79.03 10.77 77.4C10.52 75.33 9.89 73.25 8.62 71.44C8.08 70.67 7.05 69.42 5.86 68.7C4.88 68.11 3.79 67.87 2.77 68.55Z" stroke="#CAA75D" stroke-opacity="1.000000" stroke-width="2.000000" stroke-linejoin="round"/>
	<path id="Vector" d="M30.77 91.94C30.85 92.5 31.16 95.28 32.13 95.42C32.65 95.5 33.4 95.7 33.9 95.45C35.03 94.87 34.63 92.83 34.71 91.94" stroke="#CAA75D" stroke-opacity="1.000000" stroke-width="2.000000" stroke-linejoin="round" stroke-linecap="round"/>
	<path id="Vector" d="M73.1 71.31C73.02 72.2 73.67 77 72.27 78.32C71.89 78.68 71.02 78.37 70.5 78.29C70.5 78.29 69.94 77.98 69.9 76.63" stroke="#CAA75D" stroke-opacity="1.000000" stroke-width="2.000000" stroke-linejoin="round" stroke-linecap="round"/>
	<path id="Vector" d="M3.19 68.31C3.78 67.92 4.55 67.71 5.31 67.74" stroke="#CAA75D" stroke-opacity="1.000000" stroke-width="2.000000" stroke-linejoin="round" stroke-linecap="round"/>
	<path id="Vector" d="M8.45 83.06C8.83 83.14 9.22 83.01 9.58 82.88C10.34 82.59 11.11 82.31 11.87 82.02" stroke="#CAA75D" stroke-opacity="1.000000" stroke-width="2.000000" stroke-linejoin="round" stroke-linecap="round"/>
	<path id="Vector" d="M39.81 48.36C40.78 59.28 41.62 70.21 42.32 81.14" stroke="#CAA75D" stroke-opacity="1.000000" stroke-width="2.000000" stroke-linejoin="round" stroke-linecap="round"/>
	<path id="Vector" d="M52.48 44.38C53.73 54.92 54.4 65.52 54.47 76.11" stroke="#CAA75D" stroke-opacity="1.000000" stroke-width="2.000000" stroke-linejoin="round" stroke-linecap="round"/>
	<path id="Vector" d="M63.79 38.48C64.52 49.66 64.72 60.87 64.4 72.07" stroke="#CAA75D" stroke-opacity="1.000000" stroke-width="2.000000" stroke-linejoin="round" stroke-linecap="round"/>
</svg>
