<svg width="44.000000" height="40.000000" viewBox="0 0 44 40" fill="none" xmlns="http://www.w3.org/2000/svg" xmlns:xlink="http://www.w3.org/1999/xlink">
	<desc>
			Created with Pixso.
	</desc>
	<defs/>
	<path id="Vector" d="M9.33 14.76C10.74 14.76 12.1 14.13 13.1 13.03C14.1 11.92 14.66 10.42 14.66 8.85C14.66 7.29 14.1 5.78 13.1 4.68C12.1 3.57 10.74 2.95 9.33 2.95C7.91 2.95 6.56 3.57 5.56 4.68C4.56 5.78 4 7.29 4 8.85C4 10.42 4.56 11.92 5.56 13.03C6.56 14.13 7.91 14.76 9.33 14.76ZM9.33 17.71C10.38 17.71 11.42 17.48 12.39 17.03C13.36 16.59 14.24 15.94 14.99 15.11C15.73 14.29 16.32 13.31 16.72 12.24C17.12 11.17 17.33 10.01 17.33 8.85C17.33 7.69 17.12 6.54 16.72 5.46C16.32 4.39 15.73 3.41 14.99 2.59C14.24 1.77 13.36 1.11 12.39 0.67C11.42 0.22 10.38 0 9.33 0C7.21 0 5.17 0.93 3.67 2.59C2.17 4.25 1.33 6.5 1.33 8.85C1.33 11.2 2.17 13.45 3.67 15.11C5.17 16.77 7.21 17.71 9.33 17.71Z" fill="#002244" fill-opacity="1.000000" fill-rule="evenodd"/>
	<path id="Vector" d="M6.27 14.45C6.4 14.59 6.5 14.75 6.56 14.93C6.63 15.11 6.66 15.3 6.66 15.49C6.66 15.69 6.63 15.88 6.56 16.06C6.5 16.24 6.4 16.4 6.27 16.54L5.37 17.53C3.64 19.45 2.66 22.06 2.66 24.78L2.66 30.25C2.66 30.65 2.52 31.02 2.27 31.3C2.02 31.57 1.68 31.73 1.33 31.73C0.97 31.73 0.64 31.57 0.39 31.3C0.14 31.02 0 30.65 0 30.25L0 24.78C0 21.28 1.25 17.92 3.49 15.45L4.38 14.45C4.51 14.31 4.66 14.2 4.82 14.13C4.98 14.05 5.15 14.02 5.33 14.02C5.5 14.02 5.68 14.05 5.84 14.13C6 14.2 6.15 14.31 6.27 14.45ZM37.72 13.56C37.59 13.7 37.5 13.86 37.43 14.04C37.36 14.22 37.33 14.41 37.33 14.61C37.33 14.8 37.36 15 37.43 15.17C37.5 15.35 37.59 15.52 37.72 15.65L38.62 16.65C40.35 18.57 41.33 21.17 41.33 23.89L41.33 30.25C41.33 30.65 41.47 31.02 41.72 31.3C41.97 31.57 42.31 31.73 42.66 31.73C43.02 31.73 43.35 31.57 43.6 31.3C43.85 31.02 44 30.65 44 30.25L44 23.89C43.99 20.39 42.74 17.04 40.5 14.56L39.61 13.56C39.48 13.43 39.33 13.32 39.17 13.24C39.01 13.17 38.84 13.13 38.66 13.13C38.49 13.13 38.31 13.17 38.15 13.24C37.99 13.32 37.84 13.43 37.72 13.56Z" fill="#002244" fill-opacity="1.000000" fill-rule="evenodd"/>
	<path id="Vector" d="M33.33 14.76C31.91 14.76 30.56 14.13 29.56 13.03C28.56 11.92 28 10.42 28 8.85C28 7.29 28.56 5.78 29.56 4.68C30.56 3.57 31.91 2.95 33.33 2.95C34.74 2.95 36.1 3.57 37.1 4.68C38.1 5.78 38.66 7.29 38.66 8.85C38.66 10.42 38.1 11.92 37.1 13.03C36.1 14.13 34.74 14.76 33.33 14.76ZM33.33 17.71C32.28 17.71 31.24 17.48 30.27 17.03C29.3 16.59 28.41 15.94 27.67 15.11C26.93 14.29 26.34 13.31 25.94 12.24C25.54 11.17 25.33 10.01 25.33 8.85C25.33 7.69 25.54 6.54 25.94 5.46C26.34 4.39 26.93 3.41 27.67 2.59C28.41 1.77 29.3 1.11 30.27 0.67C31.24 0.22 32.28 0 33.33 0C35.45 0 37.48 0.93 38.99 2.59C40.49 4.25 41.33 6.5 41.33 8.85C41.33 11.2 40.49 13.45 38.99 15.11C37.48 16.77 35.45 17.71 33.33 17.71ZM21.33 27.3C19.56 27.3 17.86 28.08 16.61 29.46C15.36 30.85 14.66 32.72 14.66 34.68L14.66 38.52C14.66 38.91 14.52 39.29 14.27 39.56C14.02 39.84 13.68 40 13.33 40C12.97 40 12.64 39.84 12.39 39.56C12.14 39.29 12 38.91 12 38.52L12 34.68C12 31.94 12.98 29.31 14.73 27.38C16.48 25.44 18.85 24.35 21.33 24.35C23.8 24.35 26.18 25.44 27.93 27.38C29.68 29.31 30.66 31.94 30.66 34.68L30.66 38.52C30.66 38.91 30.52 39.29 30.27 39.56C30.02 39.84 29.68 40 29.33 40C28.97 40 28.64 39.84 28.39 39.56C28.14 39.29 28 38.91 28 38.52L28 34.68C28 33.71 27.82 32.75 27.49 31.86C27.15 30.96 26.66 30.15 26.04 29.46C25.42 28.78 24.69 28.23 23.88 27.86C23.07 27.49 22.2 27.3 21.33 27.3Z" fill="#002244" fill-opacity="1.000000" fill-rule="evenodd"/>
	<path id="Vector" d="M21.33 22.87C22.74 22.87 24.1 22.25 25.1 21.14C26.1 20.04 26.66 18.53 26.66 16.97C26.66 15.4 26.1 13.9 25.1 12.79C24.1 11.69 22.74 11.07 21.33 11.07C19.91 11.07 18.56 11.69 17.56 12.79C16.56 13.9 15.99 15.4 15.99 16.97C15.99 18.53 16.56 20.04 17.56 21.14C18.56 22.25 19.91 22.87 21.33 22.87ZM21.33 25.83C23.45 25.83 25.48 24.89 26.98 23.23C28.49 21.57 29.33 19.32 29.33 16.97C29.33 14.62 28.49 12.37 26.98 10.71C25.48 9.05 23.45 8.11 21.33 8.11C19.21 8.11 17.17 9.05 15.67 10.71C14.17 12.37 13.33 14.62 13.33 16.97C13.33 19.32 14.17 21.57 15.67 23.23C17.17 24.89 19.21 25.83 21.33 25.83Z" fill="#002244" fill-opacity="1.000000" fill-rule="evenodd"/>
</svg>
